<svg id="_004-analytics" data-name="004-analytics" xmlns="http://www.w3.org/2000/svg" width="22.362" height="22.362" viewBox="0 0 22.362 22.362">
  <g id="Group_803" data-name="Group 803" transform="translate(0 7.454)">
    <g id="Group_802" data-name="Group 802">
      <path id="Path_1126" data-name="Path 1126" d="M21.9,184.642H21.43v-13.51a.466.466,0,0,0-.466-.466h-2.8a.466.466,0,0,0-.466.466v13.51H15.84v-7.92a.466.466,0,0,0-.466-.466h-2.8a.466.466,0,0,0-.466.466v7.92H10.249v-9.783a.466.466,0,0,0-.466-.466h-2.8a.466.466,0,0,0-.466.466v9.783H4.659v-5.125a.466.466,0,0,0-.466-.466H1.4a.466.466,0,0,0-.466.466v5.125H.466a.466.466,0,1,0,0,.932H21.9a.466.466,0,1,0,0-.932Z" transform="translate(0 -170.666)" fill="#fff"/>
    </g>
  </g>
  <g id="Group_805" data-name="Group 805" transform="translate(0.932)">
    <g id="Group_804" data-name="Group 804">
      <path id="Path_1127" data-name="Path 1127" d="M39.968,0a1.852,1.852,0,0,0-1.6,2.8l-3.05,3.05a1.829,1.829,0,0,0-2.383.434l-2.289-.653c0-.015,0-.029,0-.045a1.864,1.864,0,1,0-3.727,0,1.841,1.841,0,0,0,.165.758L24.177,8.672a1.837,1.837,0,0,0-.98-.286,1.864,1.864,0,1,0,1.864,1.864,1.838,1.838,0,0,0-.241-.9l2.854-2.276a1.84,1.84,0,0,0,2.714-.544l2.159.616a1.766,1.766,0,0,0-.032.307,1.864,1.864,0,1,0,3.463-.941l3.051-3.051a1.836,1.836,0,0,0,.94.265,1.864,1.864,0,0,0,0-3.727Z" transform="translate(-21.333)" fill="#cac2c4"/>
    </g>
  </g>
</svg>
