<svg xmlns="http://www.w3.org/2000/svg" id="prefix___003-auction-1" width="32.794" height="24.196" data-name="003-auction-1" viewBox="0 0 32.794 24.196">
    <defs>
        <style>
            .prefix__cls-1{fill:#fff}
        </style>
    </defs>
    <g id="prefix__Group_3920" data-name="Group 3920" transform="translate(.212 8.898)">
        <path id="prefix__Path_6886" d="M27.52 389.54a.956.956 0 0 0 .908-.6l.041-.122h.041v-.271a1.021 1.021 0 0 0-.081-.393.944.944 0 0 0-.908-.6H15.975l-.122.027-.434.176-.108.068-.014.014a.941.941 0 0 0-.285.691.911.911 0 0 0 .054.325l.027.054a1.052 1.052 0 0 0 .217.325.963.963 0 0 0 .691.285z" class="prefix__cls-1" data-name="Path 6886" transform="translate(3.055 -374.499)"/>
        <path id="prefix__Path_6887" d="M274.1 203.36a1.224 1.224 0 0 0 .379-.054l10.746-3.523.135-.081.529-.434.108-.122.014-.027a1.247 1.247 0 0 0 .149-.542 1.717 1.717 0 0 0-.054-.461l-.014-.027-.786-2.4a1.336 1.336 0 0 0-.664-.772 1.351 1.351 0 0 0-.61-.149 1.419 1.419 0 0 0-.407.068l-10.746 3.51a1.363 1.363 0 0 0-.827 1.626l.8 2.453a1.362 1.362 0 0 0 .664.786 1.426 1.426 0 0 0 .584.149z" class="prefix__cls-1" data-name="Path 6887" transform="translate(-272.013 -194.769)"/>
    </g>
    <path id="prefix__Rectangle_1198" d="M0 0H10.38V6.626H0z" class="prefix__cls-1" data-name="Rectangle 1198" transform="rotate(71.87 10.479 17.715)"/>
    <path id="prefix__Path_6888" d="M63.237 246.963a.789.789 0 0 0 .257-.041l6.681-2.182a.772.772 0 0 0 .542-.881.787.787 0 0 0-.772-.691.874.874 0 0 0-.271.041l-6.681 2.182h-.013a.81.81 0 0 0-.528.908.836.836 0 0 0 .786.664z" class="prefix__cls-1" data-name="Path 6888" transform="translate(-42.166 -230.992)"/>
    <path id="prefix__Path_6889" d="M42 358.483l-.068-.325a2.206 2.206 0 0 0-2.168-1.789h-6.929a2.219 2.219 0 0 0-2.168 1.789l-.054.325z" class="prefix__cls-1" data-name="Path 6889" transform="translate(-11.276 -336.522)"/>
    <path id="prefix__Path_6890" d="M195.383 177.7a.809.809 0 0 0 .65-.325.749.749 0 0 0 .095-.678l-.854-2.615a.757.757 0 0 0-.718-.515.769.769 0 0 0-.759.772.562.562 0 0 0 .041.217l.854 2.615a.712.712 0 0 0 .691.528z" class="prefix__cls-1" data-name="Path 6890" transform="translate(-176.506 -166.108)"/>
    <path id="prefix__Rectangle_1199" d="M0 0H2.791V3.97H0z" class="prefix__cls-1" data-name="Rectangle 1199" transform="rotate(71.87 2.714 16.07)"/>
    <path id="prefix__Path_6891" d="M119.893 73.63a.874.874 0 0 0 .271-.041l6.613-2.168.488-.366.027-.054a.807.807 0 0 0-.962-1.138l-6.667 2.182a.815.815 0 0 0 .23 1.585z" class="prefix__cls-1" data-name="Path 6891" transform="translate(-102.657 -69.394)"/>
    <path id="prefix__Path_6892" d="M20.923 78.1l.108-.041 6.464-2.114.108-.041a.541.541 0 0 1 .678.339.541.541 0 0 1-.339.678l-6.68 2.179a.541.541 0 0 1-.678-.339.521.521 0 0 1 .339-.664zm-3.333-6.653a.462.462 0 0 1 .285-.244.5.5 0 0 1 .623.312l.854 2.615a.481.481 0 0 1-.312.61.5.5 0 0 1-.623-.312l-.854-2.615a.487.487 0 0 1 .026-.364zm1.6-.136c0-.014-.014-.027-.014-.041l-1.1-3.347 3.483-1.152 2.3-.759 3.062 9.35-5.786 1.9-1.1-3.361v-.014zm-4.79 4.162l-.7-2.141 3.266-1.07.7 2.141zm-2.656-3.239l-10.705 3.5a1.537 1.537 0 0 0-.976 1.911l.786 2.412a1.5 1.5 0 0 0 1.911.962l10.705-3.5a1.535 1.535 0 0 0 1.043-1.328l3.455-1.125a1.216 1.216 0 0 0 .366.285 1.272 1.272 0 0 0 .894.081c.014 0 .041-.014.054-.014a1.251 1.251 0 0 0 .407-.244l.772 2.344a1.269 1.269 0 0 0-.583 1.45c0 .014.014.041.014.054a1.265 1.265 0 0 0 1.572.772l6.681-2.168a1.252 1.252 0 0 0 .813-1.545c0-.014-.014-.041-.014-.054a1.245 1.245 0 0 0-1.328-.827l-3.076-9.418a1.236 1.236 0 0 0 .569-1.463v-.014a1.26 1.26 0 0 0-1.585-.8l-6.675 2.185a1.251 1.251 0 0 0-.8 1.572 1.257 1.257 0 0 0 1.342.854l.772 2.344a1.379 1.379 0 0 0-.474.041.07.07 0 0 0-.054.027 1.22 1.22 0 0 0-.8 1.043L13.375 72.7a1.716 1.716 0 0 0-.461-.366 1.584 1.584 0 0 0-1.165-.095zM1.288 76.408l10.678-3.5a.788.788 0 0 1 1 .5v.014l.786 2.385c0 .014.014.027.014.041a.787.787 0 0 1-.5.976l-.041.014-10.678 3.5a.8.8 0 0 1-1-.515l-.774-2.385c0-.014-.014-.027-.014-.041a.787.787 0 0 1 .5-.976zm17.982 9.445H30.8a.524.524 0 0 1 .366.149.481.481 0 0 1 .149.379.524.524 0 0 1-.149.366l-.014.014a.532.532 0 0 1-.379.149H19.256a.544.544 0 0 1-.542-.542.513.513 0 0 1 .163-.379.688.688 0 0 1 .393-.136zm11.857-.664a2.6 2.6 0 0 0-.745-1.545l-.014-.027a2.624 2.624 0 0 0-1.87-.772H21.56a2.657 2.657 0 0 0-1.87.772 2.616 2.616 0 0 0-.759 1.558 1.24 1.24 0 0 0-.542.325 1.264 1.264 0 0 0-.366.881 1.267 1.267 0 0 0 1.26 1.26H30.8a1.24 1.24 0 0 0 .881-.366l.027-.027a1.279 1.279 0 0 0 .352-.867 1.264 1.264 0 0 0-.36-.881 1.305 1.305 0 0 0-.569-.312zm-11.464-.054a1.9 1.9 0 0 1 .528-1 1.928 1.928 0 0 1 1.369-.569h6.94a1.928 1.928 0 0 1 1.369.569l.014.014a1.843 1.843 0 0 1 .515.989zm9.662-5.475a.353.353 0 0 0-.339.379c.014.176.339.339.339.339h3.13a.353.353 0 0 0 .338-.378.364.364 0 0 0-.339-.339zm-.136-1.016A.342.342 0 0 0 29 79.1a.353.353 0 0 0 .461.19l2.71-1.1a.342.342 0 0 0 .19-.461.353.353 0 0 0-.461-.19zm.271 2.087a.344.344 0 0 0-.461.19.36.36 0 0 0 .19.461l2.71 1.1a.344.344 0 0 0 .461-.19.36.36 0 0 0-.19-.461zm-5.474-15.5l-6.464 2.114h-.014l-.095.027a.545.545 0 0 1-.678-.325.05.05 0 0 0-.013-.047.552.552 0 0 1 .352-.664l6.681-2.155a.545.545 0 0 1 .678.325c0 .014.014.027.014.041a.533.533 0 0 1-.325.65l-.041.014-.095.014zm-6.9 1.138a.353.353 0 0 0 .217-.447" data-name="Path 6892" transform="translate(0 -63.445)" style="fill:none"/>
</svg>
