<svg id="icon" xmlns="http://www.w3.org/2000/svg" xmlns:xlink="http://www.w3.org/1999/xlink" width="40" height="40" viewBox="0 0 40 40">
  <defs>
    <clipPath id="clip-path">
      <circle id="Ellipse_35" data-name="Ellipse 35" cx="14" cy="14" r="14" transform="translate(6 6)" fill="#ddeadb"/>
    </clipPath>
  </defs>
  <circle id="Ellipse_2" data-name="Ellipse 2" cx="20" cy="20" r="20" fill="rgba(94,30,14,0.1)"/>
  <g id="Mask_Group_24" data-name="Mask Group 24" clip-path="url(#clip-path)">
    <g id="auction" transform="translate(6.006 9.673)">
      <g id="Group_3920" data-name="Group 3920" transform="translate(0.181 7.596)">
        <path id="Path_6886" data-name="Path 6886" d="M23.493,332.533a.816.816,0,0,0,.775-.512l.035-.1h.035v-.231a.872.872,0,0,0-.069-.335.806.806,0,0,0-.775-.512H13.637l-.1.023-.37.15-.092.058-.012.012a.8.8,0,0,0-.243.59.778.778,0,0,0,.046.277l.023.046a.9.9,0,0,0,.185.277.822.822,0,0,0,.59.243Z" transform="translate(2.608 -319.693)" fill="#5e1e0e"/>
        <path id="Path_6887" data-name="Path 6887" d="M233.987,173.6a1.045,1.045,0,0,0,.324-.046l9.173-3.007.115-.069.452-.37.092-.1.012-.023a1.064,1.064,0,0,0,.127-.463,1.467,1.467,0,0,0-.046-.394l-.012-.023-.671-2.049a1.141,1.141,0,0,0-.567-.659,1.153,1.153,0,0,0-.521-.127,1.212,1.212,0,0,0-.347.058l-9.173,3a1.164,1.164,0,0,0-.706,1.388l.683,2.094a1.163,1.163,0,0,0,.567.671,1.217,1.217,0,0,0,.5.127Z" transform="translate(-232.205 -166.265)" fill="#5e1e0e"/>
      </g>
      <path id="Rectangle_1198" data-name="Rectangle 1198" d="M0,0H8.861V5.656H0Z" transform="matrix(0.311, 0.95, -0.95, 0.311, 20.534, 1.915)" fill="#5e1e0e"/>
      <path id="Path_6888" data-name="Path 6888" d="M53.983,210.821a.673.673,0,0,0,.219-.035l5.7-1.863a.659.659,0,0,0,.463-.752.672.672,0,0,0-.659-.59.747.747,0,0,0-.231.035l-5.7,1.863h-.011a.691.691,0,0,0-.451.775.714.714,0,0,0,.671.567Z" transform="translate(-35.995 -197.187)" fill="#5e1e0e"/>
      <path id="Path_6889" data-name="Path 6889" d="M35.853,306.021l-.058-.277a1.883,1.883,0,0,0-1.851-1.527H28.03a1.894,1.894,0,0,0-1.851,1.527l-.046.277Z" transform="translate(-9.626 -287.274)" fill="#5e1e0e"/>
      <path id="Path_6890" data-name="Path 6890" d="M166.79,151.694a.691.691,0,0,0,.555-.277.64.64,0,0,0,.081-.579l-.729-2.232a.646.646,0,0,0-.613-.44.656.656,0,0,0-.648.659.479.479,0,0,0,.035.185l.729,2.232a.608.608,0,0,0,.59.451Z" transform="translate(-150.675 -141.799)" fill="#5e1e0e"/>
      <path id="Rectangle_1199" data-name="Rectangle 1199" d="M0,0H2.383V3.389H0Z" transform="matrix(0.311, 0.95, -0.95, 0.311, 14.633, 7.248)" fill="#5e1e0e"/>
      <path id="Path_6891" data-name="Path 6891" d="M102.347,62.855a.746.746,0,0,0,.231-.035l5.645-1.851.417-.312.023-.046a.689.689,0,0,0-.821-.971L102.151,61.5a.7.7,0,0,0,.2,1.353Z" transform="translate(-87.634 -59.239)" fill="#5e1e0e"/>
      <path id="Path_6892" data-name="Path 6892" d="M17.861,66.67l.092-.035,5.518-1.8.092-.035a.458.458,0,1,1,.289.868l-5.7,1.86a.462.462,0,0,1-.579-.289.445.445,0,0,1,.289-.567Zm-2.845-5.679a.394.394,0,0,1,.243-.208.427.427,0,0,1,.532.266l.729,2.232a.411.411,0,0,1-.266.521.427.427,0,0,1-.532-.266L14.993,61.3a.416.416,0,0,1,.022-.311Zm1.366-.116c0-.012-.012-.023-.012-.035l-.939-2.857L18.4,57l1.963-.648,2.614,7.982-4.939,1.622L17.1,63.086v-.012Zm-4.089,3.553L11.7,62.6l2.788-.913.6,1.828Zm-2.267-2.765L.887,64.651a1.312,1.312,0,0,0-.833,1.631l.671,2.059a1.28,1.28,0,0,0,1.631.821l9.138-2.988a1.31,1.31,0,0,0,.89-1.134l2.949-.96a1.038,1.038,0,0,0,.312.243,1.086,1.086,0,0,0,.763.069c.012,0,.035-.012.046-.012a1.068,1.068,0,0,0,.347-.208l.659,2a1.083,1.083,0,0,0-.5,1.238c0,.012.012.035.012.046a1.08,1.08,0,0,0,1.342.659l5.7-1.851a1.069,1.069,0,0,0,.694-1.319c0-.012-.012-.035-.012-.046a1.063,1.063,0,0,0-1.134-.706l-2.626-8.04a1.055,1.055,0,0,0,.486-1.249v-.012a1.076,1.076,0,0,0-1.353-.683l-5.7,1.865a1.066,1.066,0,0,0,.463,2.071l.659,2a1.177,1.177,0,0,0-.4.035.06.06,0,0,0-.046.023,1.041,1.041,0,0,0-.683.89l-2.949.964a1.465,1.465,0,0,0-.394-.312,1.352,1.352,0,0,0-.995-.081ZM1.1,65.226l9.115-2.988a.673.673,0,0,1,.854.427v.012l.671,2.036c0,.012.012.023.012.035a.672.672,0,0,1-.427.833l-.035.012L2.174,68.581a.683.683,0,0,1-.854-.44L.66,66.105c0-.012-.012-.023-.012-.035a.672.672,0,0,1,.427-.833Zm15.35,8.063h9.843a.447.447,0,0,1,.312.127.411.411,0,0,1,.127.324.447.447,0,0,1-.127.312l-.012.012a.454.454,0,0,1-.324.127H16.438a.464.464,0,0,1-.463-.463.438.438,0,0,1,.139-.324A.587.587,0,0,1,16.45,73.289Zm10.122-.567a2.22,2.22,0,0,0-.636-1.319l-.012-.023a2.24,2.24,0,0,0-1.6-.659H18.4a2.268,2.268,0,0,0-1.6.659,2.233,2.233,0,0,0-.648,1.33,1.059,1.059,0,0,0-.463.277,1.071,1.071,0,0,0,.763,1.828h9.832a1.059,1.059,0,0,0,.752-.312l.023-.023a1.092,1.092,0,0,0,.3-.74,1.079,1.079,0,0,0-.307-.752,1.114,1.114,0,0,0-.486-.266Zm-9.786-.046a1.622,1.622,0,0,1,.451-.854,1.646,1.646,0,0,1,1.169-.486h5.924a1.646,1.646,0,0,1,1.169.486l.012.012a1.573,1.573,0,0,1,.44.844ZM25.033,68a.3.3,0,0,0-.289.324c.012.15.289.289.289.289h2.672a.3.3,0,0,0,.289-.323A.311.311,0,0,0,27.7,68Zm-.116-.867a.292.292,0,0,0-.161.389.3.3,0,0,0,.394.162l2.313-.939a.292.292,0,0,0,.162-.394.3.3,0,0,0-.394-.162Zm.231,1.782a.294.294,0,0,0-.394.162.307.307,0,0,0,.162.394l2.313.939a.294.294,0,0,0,.394-.162.307.307,0,0,0-.162-.394ZM20.476,55.685l-5.518,1.8h-.012l-.081.023a.465.465,0,0,1-.579-.277.043.043,0,0,0-.011-.04.471.471,0,0,1,.3-.567l5.7-1.84a.465.465,0,0,1,.579.277c0,.012.012.023.012.035a.455.455,0,0,1-.277.555l-.035.012-.081.012Zm-5.89.971a.3.3,0,0,0,.185-.382" transform="translate(0 -54.16)" fill="none"/>
    </g>
  </g>
</svg>
