<svg id="icon" xmlns="http://www.w3.org/2000/svg" xmlns:xlink="http://www.w3.org/1999/xlink" width="40" height="40" viewBox="0 0 40 40">
  <defs>
    <clipPath id="clip-path">
      <circle id="Ellipse_35" data-name="Ellipse 35" cx="14" cy="14" r="14" transform="translate(6 6)" fill="#ddeadb"/>
    </clipPath>
  </defs>
  <circle id="Ellipse_2" data-name="Ellipse 2" cx="20" cy="20" r="20" fill="rgba(0,108,201,0.1)"/>
  <g id="Mask_Group_25" data-name="Mask Group 25" clip-path="url(#clip-path)">
    <g id="bell" transform="translate(8 8)">
      <g id="Group_4061" data-name="Group 4061" transform="translate(2.545)">
        <path id="Path_6946" data-name="Path 6946" d="M19.912,17.161c-.573-.925-1.356-2.191-1.356-5.794V9.743a7.535,7.535,0,0,0-5-7.259V2.165a2.09,2.09,0,0,0-2-2.165,2.09,2.09,0,0,0-2,2.165v.319a7.535,7.535,0,0,0-5,7.259v1.624c0,3.6-.784,4.869-1.356,5.794a3.209,3.209,0,0,0-.645,1.784c0,1.765,3.4,2.384,6.157,2.6a3.017,3.017,0,0,0,2.848,2.274A3.017,3.017,0,0,0,14.4,21.542c2.757-.213,6.157-.833,6.157-2.6A3.209,3.209,0,0,0,19.912,17.161Zm-9.361-15a1,1,0,1,1,2,0v.086a5.833,5.833,0,0,0-2,0V2.165Zm1,20.569A1.968,1.968,0,0,1,9.805,21.61c.709.032,1.325.041,1.746.041s1.037-.009,1.746-.041A1.968,1.968,0,0,1,11.551,22.734Zm0-2.165c-4.582,0-8.005-.857-8.005-1.624a2.151,2.151,0,0,1,.476-1.181c.607-.981,1.525-2.464,1.525-6.4V9.743a6.271,6.271,0,0,1,6-6.5,6.271,6.271,0,0,1,6,6.5v1.624c0,3.933.919,5.416,1.525,6.4a2.151,2.151,0,0,1,.476,1.181C19.556,19.711,16.133,20.569,11.551,20.569Z" transform="translate(-2.545)" fill="#006cc9"/>
      </g>
    </g>
  </g>
</svg>
