<svg id="Group_2" data-name="Group 2" xmlns="http://www.w3.org/2000/svg" width="74.788" height="84.915" viewBox="0 0 74.788 84.915">
  <g id="Group_12" data-name="Group 12" transform="translate(4.238)">
    <g id="Group_10" data-name="Group 10">
      <g id="Group_9" data-name="Group 9">
        <path id="Path_11" data-name="Path 11" d="M63.747,33.094l8.6-2.883a22.275,22.275,0,0,0-19.2-19.171l-2.908,8.427L50.145,0,47.409,11.015A22.2,22.2,0,0,0,28.263,30.161l8.354,2.858L17.1,33.192l11.187,2.834a22.27,22.27,0,0,0,18.949,19.1l2.982-8.575.123,19.541,2.883-10.966a22.248,22.248,0,0,0,19.1-19.171l11.064-2.883ZM58.079,43.542a13.1,13.1,0,0,1-15.6-.025L35.384,48l4.386-7.245a13.065,13.065,0,0,1-2.513-7.713,12.869,12.869,0,0,1,2.563-7.762l-4.485-7.048,7.146,4.337A13.088,13.088,0,0,1,58.005,22.5l7.072-4.263-4.312,6.949a13.073,13.073,0,0,1,.025,15.647l4.362,7.1Z" transform="translate(-17.1)" fill="#083654"/>
      </g>
    </g>
    <g id="Group_11" data-name="Group 11" transform="translate(24.765 24.666)">
      <path id="Path_12" data-name="Path 12" d="M121.3,103.525l7.614-3.425,7.491,3.45-7.54,3.351Z" transform="translate(-120.388 -100.1)" fill="#f7931e"/>
      <path id="Path_13" data-name="Path 13" d="M117.6,117.7l7.811,3.5-.123,8.871-7.688-3.425Z" transform="translate(-117.6 -113.363)" fill="#f7931e"/>
      <path id="Path_14" data-name="Path 14" d="M162.013,117.7l-7.713,3.5.074,8.871,7.639-3.425Z" transform="translate(-145.256 -113.363)" fill="#f7931e"/>
    </g>
  </g>
  <g id="Group_15" data-name="Group 15" transform="translate(0 68.258)">
    <path id="Path_15" data-name="Path 15" d="M16.287,285.9a7.543,7.543,0,0,1-1.281,4.337,7.449,7.449,0,0,1-3.548,2.809,8.209,8.209,0,0,1-2.883.616,9.511,9.511,0,0,1-2.563-.271,8.85,8.85,0,0,1-4.386-3.13A8.092,8.092,0,0,1-.1,285.206a7.72,7.72,0,0,1,2.563-5.742A8.337,8.337,0,0,1,8.327,277a9.607,9.607,0,0,1,4.091.789l.789.37L11.334,280.2a5.965,5.965,0,0,0-2.908-.665,5.677,5.677,0,0,0-3.992,1.651,5.149,5.149,0,0,0-1.75,3.844l.049.074A6.1,6.1,0,0,0,4.286,289.2,4.978,4.978,0,0,0,8.18,291.07a5.451,5.451,0,0,0,3.179-.986,4.178,4.178,0,0,0,1.848-2.711H9.165v-2.587h7.146V285.9Z" transform="translate(0.1 -277)" fill="#f7931e"/>
    <path id="Path_16" data-name="Path 16" d="M79.735,306.923a4.76,4.76,0,0,1-1.7,3.746,5.779,5.779,0,0,1-3.967,1.5,5.7,5.7,0,0,1-3.918-1.5,5.037,5.037,0,0,1-.049-7.59,6.062,6.062,0,0,1,7.935,0A5,5,0,0,1,79.735,306.923Zm-2.76,0a2.666,2.666,0,0,0-.862-2,2.883,2.883,0,0,0-2.07-.813,2.983,2.983,0,0,0-2.095.813,2.617,2.617,0,0,0-.887,2.021A2.509,2.509,0,0,0,72,308.894a2.952,2.952,0,0,0,2.045.789,3,3,0,0,0,2.045-.789A2.589,2.589,0,0,0,76.975,306.923Z" transform="translate(-51.52 -295.538)" fill="#f7931e"/>
    <path id="Path_17" data-name="Path 17" d="M129.954,289.883a3.924,3.924,0,0,1-1.922,3.5,7.406,7.406,0,0,1-4.041,1.035H119.9V278.425l4.017-.025a8.992,8.992,0,0,1,3.893.789,3.6,3.6,0,0,1,1.823,3.45,5.19,5.19,0,0,1-.789,2.292,4.8,4.8,0,0,1-1.725,1.257,4.44,4.44,0,0,1,2.07,1.4A3.619,3.619,0,0,1,129.954,289.883Zm-3.179-7.048a1.629,1.629,0,0,0-.739-1.5,4.3,4.3,0,0,0-2.292-.468l-1.01.025v4.189l1.109-.074C125.617,285.053,126.6,284.339,126.775,282.836Zm.345,6.924a1.99,1.99,0,0,0-1.084-1.873,4.58,4.58,0,0,0-2.242-.493h-1.06v4.436h1.158a4.764,4.764,0,0,0,2.095-.493A1.749,1.749,0,0,0,127.12,289.76Z" transform="translate(-90.33 -278.055)" fill="#083654"/>
    <path id="Path_18" data-name="Path 18" d="M247.439,294.193H239.8V278.2h2.834v13.43h4.805Z" transform="translate(-180.685 -277.904)" fill="#083654"/>
    <path id="Path_19" data-name="Path 19" d="M274.739,280.613l-3.228.074v13.43H268.7v-13.43l-3.3-.074.1-2.513h9.265v2.513Z" transform="translate(-199.976 -277.829)" fill="#083654"/>
    <g id="Group_14" data-name="Group 14" transform="translate(41.472 0.296)">
      <g id="Group_13" data-name="Group 13">
        <path id="Path_20" data-name="Path 20" d="M182.591,286.381a6.2,6.2,0,0,0-5.766-6.185v.986a5.218,5.218,0,0,1,0,10.4v.986A6.232,6.232,0,0,0,182.591,286.381Zm-6.431-5.224v-.986a6.188,6.188,0,0,0,0,12.37v-.986a5.2,5.2,0,0,1,0-10.4Zm6.579,8.772a7.289,7.289,0,1,1-6.579-10.842V278.2a8.17,8.17,0,1,0,7.565,11.729Z" transform="translate(-168.2 -278.2)" fill="#f7931e"/>
      </g>
    </g>
  </g>
</svg>
