<svg xmlns="http://www.w3.org/2000/svg" width="23.642" height="22.424" viewBox="0 0 23.642 22.424">
  <g id="Group_809" data-name="Group 809" transform="translate(-82.18 -330.733)">
    <g id="_006-bill" data-name="006-bill" transform="translate(82.18 330.339)">
      <path id="Path_1128" data-name="Path 1128" d="M124.843,282.562a.542.542,0,1,0-.541.5A.521.521,0,0,0,124.843,282.562Zm0,0" transform="translate(-117.453 -267.309)" fill="#fff"/>
      <path id="Path_1129" data-name="Path 1129" d="M124.3,212.527a.5.5,0,1,0,.541.5A.522.522,0,0,0,124.3,212.527Zm0,0" transform="translate(-117.453 -201.319)" fill="#fff"/>
      <path id="Path_1130" data-name="Path 1130" d="M124.843,143.491a.542.542,0,1,0-.541.5A.521.521,0,0,0,124.843,143.491Zm0,0" transform="translate(-117.453 -135.328)" fill="#fff"/>
      <path id="Path_1131" data-name="Path 1131" d="M271.654.395A5.025,5.025,0,1,0,276.68,5.42,5.025,5.025,0,0,0,271.654.395Zm-.023,4.666a1.676,1.676,0,0,1,.319,3.321v.47a.357.357,0,1,1-.714,0V8.364a1.678,1.678,0,0,1-1.281-1.628.357.357,0,0,1,.714,0,.962.962,0,1,0,.962-.962,1.676,1.676,0,0,1-.4-3.3V2.02a.357.357,0,1,1,.714,0v.433A1.678,1.678,0,0,1,273.306,4.1a.357.357,0,0,1-.714,0,.963.963,0,0,0-.946-.961.346.346,0,0,1-.054,0l-.033,0a.962.962,0,0,0,.071,1.92Zm0,0" transform="translate(-253.037)" fill="#fff"/>
      <path id="Path_1132" data-name="Path 1132" d="M12.858,367.945a3.148,3.148,0,0,1-.929-2.231v-1.43H0v1.436a2.45,2.45,0,0,0,2.446,2.439H13.1A1.616,1.616,0,0,1,12.858,367.945Zm0,0" transform="translate(0 -345.341)" fill="#fff"/>
      <path id="Path_1133" data-name="Path 1133" d="M75.287,79.567H70.965a.357.357,0,0,1,0-.714H74.9a5.653,5.653,0,0,1-.52-2.385,5.925,5.925,0,0,1,.123-1.184H64.9L64.8,89.3h9a.326.326,0,0,1,.339.338v1.806a2.456,2.456,0,0,0,2.452,2.444H76.6a2.439,2.439,0,0,0,2.434-2.439V82.13A5.658,5.658,0,0,1,75.287,79.567Zm-6.94,7.971A1.214,1.214,0,1,1,69.6,86.325,1.236,1.236,0,0,1,68.347,87.538Zm0-3.545A1.214,1.214,0,1,1,69.6,82.781,1.236,1.236,0,0,1,68.347,83.993Zm0-3.545A1.214,1.214,0,1,1,69.6,79.236,1.236,1.236,0,0,1,68.347,80.449ZM76.4,86.7H70.965a.357.357,0,0,1,0-.714H76.4a.357.357,0,1,1,0,.714Zm.357-3.925a.357.357,0,0,1-.357.357H70.965a.357.357,0,0,1,0-.714H76.4A.357.357,0,0,1,76.759,82.779Zm0,0" transform="translate(-61.497 -71.073)" fill="#fff"/>
      <circle id="Ellipse_3" data-name="Ellipse 3" cx="4" cy="4" r="4" transform="translate(14.82 1.661)" fill="#fff"/>
    </g>
    <g id="_007-rupee" data-name="007-rupee" transform="translate(41.952 332.474)">
      <g id="Group_808" data-name="Group 808" transform="translate(56.365)">
        <path id="Path_1134" data-name="Path 1134" d="M61.116,1.929H60.027a2.146,2.146,0,0,0-.86-1.5h1.949a.214.214,0,1,0,0-.429H56.579a.214.214,0,1,0,0,.429h1.3a1.732,1.732,0,0,1,1.717,1.5H56.579a.214.214,0,1,0,0,.429H59.6A1.735,1.735,0,0,1,57.879,3.88h-1.3a.218.218,0,0,0-.214.221.221.221,0,0,0,.066.154l3.244,3.068a.214.214,0,0,0,.3-.009.219.219,0,0,0-.009-.307l-2.853-2.7h.759a2.165,2.165,0,0,0,2.15-1.951h1.089a.214.214,0,1,0,0-.429Z" transform="translate(-56.365)" fill="#133751"/>
      </g>
    </g>
  </g>
</svg>
