<svg id="icon" xmlns="http://www.w3.org/2000/svg" xmlns:xlink="http://www.w3.org/1999/xlink" width="40" height="40" viewBox="0 0 40 40">
  <defs>
    <clipPath id="clip-path">
      <circle id="Ellipse_35" data-name="Ellipse 35" cx="14" cy="14" r="14" transform="translate(6 6)" fill="#fafafa"/>
    </clipPath>
  </defs>
  <circle id="Ellipse_2" data-name="Ellipse 2" cx="20" cy="20" r="20" fill="rgba(67,160,71,0.1)"/>
  <g id="Mask_Group_16" data-name="Mask Group 16" clip-path="url(#clip-path)">
    <path id="Path_1632" data-name="Path 1632" d="M.778,7.551h.778v4.616H.778a.782.782,0,0,1-.551-.225A.763.763,0,0,1,0,11.4V8.327a.766.766,0,0,1,.226-.547.784.784,0,0,1,.552-.228Zm23.353,0h-.779v4.616h.779a.782.782,0,0,0,.551-.225.763.763,0,0,0,.228-.544V8.327a.766.766,0,0,0-.226-.547.784.784,0,0,0-.552-.228ZM21.8,6.013V19.862a1.528,1.528,0,0,1-.455,1.088,1.565,1.565,0,0,1-1.1.45v1.538a1.528,1.528,0,0,1-.455,1.088,1.565,1.565,0,0,1-1.1.45H17.125a1.547,1.547,0,0,1-1.556-1.538V21.4H9.342v1.538a1.528,1.528,0,0,1-.455,1.088,1.565,1.565,0,0,1-1.1.45H6.228a1.547,1.547,0,0,1-1.556-1.538V21.4a1.547,1.547,0,0,1-1.556-1.538V6.013A4.643,4.643,0,0,1,7.784,1.4h9.341A4.645,4.645,0,0,1,21.8,6.013ZM9.342,4.475H15.57V2.937H9.342ZM7.784,18.324a1.556,1.556,0,1,0-1.556,1.538,1.565,1.565,0,0,0,1.1-.45,1.528,1.528,0,0,0,.455-1.088Zm12.455,0a1.556,1.556,0,1,0-1.556,1.538,1.565,1.565,0,0,0,1.1-.45,1.528,1.528,0,0,0,.455-1.088Zm0-12.311H4.67v9.232H20.239Z" transform="translate(8 6.603)" fill="#43a047"/>
  </g>
</svg>
