<svg id="icon" xmlns="http://www.w3.org/2000/svg" xmlns:xlink="http://www.w3.org/1999/xlink" width="40" height="40" viewBox="0 0 40 40">
  <defs>
    <clipPath id="clip-path">
      <circle id="Ellipse_35" data-name="Ellipse 35" cx="14" cy="14" r="14" transform="translate(6 6)" fill="#ddeadb"/>
    </clipPath>
  </defs>
  <circle id="Ellipse_2" data-name="Ellipse 2" cx="20" cy="20" r="20" fill="rgba(0,108,201,0.1)"/>
  <g id="Mask_Group_13" data-name="Mask Group 13" clip-path="url(#clip-path)">
    <g id="credit-card" transform="translate(8 7.9)">
      <path id="Path_1655" data-name="Path 1655" d="M20.442,5.495V7.64l1.4.633V2.7a1.6,1.6,0,0,0-1.6-1.6H4.882A1.6,1.6,0,0,0,3.3,2.5h14.15A3,3,0,0,1,20.442,5.495Z" transform="translate(-0.486)" fill="#006cc9" fill-rule="evenodd"/>
      <path id="Path_1656" data-name="Path 1656" d="M0,9.3v1.4H11.6c1.022-.477,2.064-.933,3.093-1.4Z" transform="translate(0 -1.209)" fill="#006cc9" fill-rule="evenodd"/>
      <path id="Path_1657" data-name="Path 1657" d="M0,12.585v4.138a1.6,1.6,0,0,0,1.6,1.6h8.847l0-5.735H0Z" transform="translate(0 -1.693)" fill="#006cc9" fill-rule="evenodd"/>
      <path id="Path_1658" data-name="Path 1658" d="M18.557,5.978a1.6,1.6,0,0,0-1.6-1.6H1.6A1.6,1.6,0,0,0,0,5.978v1.2H18.557Z" transform="translate(0 -0.484)" fill="#006cc9" fill-rule="evenodd"/>
      <path id="Path_1659" data-name="Path 1659" d="M25.908,12.635A.7.7,0,0,0,25.5,12L20.149,9.579a.7.7,0,0,0-.574,0l-5.309,2.4a.7.7,0,0,0-.451.654v4.334a5.263,5.263,0,0,0,1.877,4.392l3.74,2.827a.7.7,0,0,0,.853.009l3.748-2.836a5.26,5.26,0,0,0,1.875-4.391Zm-2.722,2.789-3.412,3.411a.7.7,0,0,1-.989,0L17.153,17.2a.7.7,0,0,1,.989-.989l1.138,1.138L22.2,14.435a.7.7,0,1,1,.989.989Z" transform="translate(-2.037 -1.241)" fill="#006cc9" fill-rule="evenodd"/>
    </g>
  </g>
</svg>
