<svg id="dashboard_1_" data-name="dashboard (1)" xmlns="http://www.w3.org/2000/svg" width="24" height="24" viewBox="0 0 24 24">
  <path id="Path_1137" data-name="Path 1137" d="M9.25,0H1.75A1.752,1.752,0,0,0,0,1.75v4.5A1.752,1.752,0,0,0,1.75,8h7.5A1.752,1.752,0,0,0,11,6.25V1.75A1.752,1.752,0,0,0,9.25,0Zm0,0" fill="#c8c4c4"/>
  <path id="Path_1138" data-name="Path 1138" d="M9.25,213.332H1.75A1.752,1.752,0,0,0,0,215.082v10.5a1.752,1.752,0,0,0,1.75,1.75h7.5a1.752,1.752,0,0,0,1.75-1.75v-10.5A1.752,1.752,0,0,0,9.25,213.332Zm0,0" transform="translate(0 -203.332)" fill="#fff"/>
  <path id="Path_1139" data-name="Path 1139" d="M286.582,341.332h-7.5a1.752,1.752,0,0,0-1.75,1.75v4.5a1.752,1.752,0,0,0,1.75,1.75h7.5a1.752,1.752,0,0,0,1.75-1.75v-4.5A1.752,1.752,0,0,0,286.582,341.332Zm0,0" transform="translate(-264.332 -325.332)" fill="#c8c4c4"/>
  <path id="Path_1140" data-name="Path 1140" d="M286.582,0h-7.5a1.752,1.752,0,0,0-1.75,1.75v10.5a1.752,1.752,0,0,0,1.75,1.75h7.5a1.752,1.752,0,0,0,1.75-1.75V1.75A1.752,1.752,0,0,0,286.582,0Zm0,0" transform="translate(-264.332)" fill="#fff"/>
</svg>
