<svg xmlns="http://www.w3.org/2000/svg" width="36" height="29.491" viewBox="0 0 36 29.491">
  <g id="Group_5883" data-name="Group 5883" transform="translate(-913 799.299)">
    <g id="Group_5871" data-name="Group 5871" transform="translate(922.277 -787.259)">
      <g id="Group_3351" data-name="Group 3351" transform="translate(0 0)">
        <path id="Path_6276" data-name="Path 6276" d="M878.222,460.433a.49.49,0,0,0-.49-.49h-5.679a12.179,12.179,0,0,1-1.906.98h7.585A.49.49,0,0,0,878.222,460.433Z" transform="translate(-863.445 -449.926)" fill="#004586"/>
        <path id="Path_6277" data-name="Path 6277" d="M853.307,404.262l-.382-.544-1.048-1.469-2.679-3.835a.491.491,0,0,0-.4-.211h-4.149v-2.748a.49.49,0,0,0-.49-.49h-3.185q-.023.5-.085.98h2.78v1.249h-3.006q-.117.5-.275.98h3.281v10.663h-7.557a2.939,2.939,0,0,0-5.839,0h-2.61v-2.288q-.5-.045-.989-.13v2.908a.49.49,0,0,0,.49.49h3.1a2.939,2.939,0,0,0,5.838,0h9.5a2.939,2.939,0,0,0,5.838,0h1.47a.49.49,0,0,0,.485-.5v-4.771A.49.49,0,0,0,853.307,404.262Zm-20.115,7.023v.025a1.983,1.983,0,0,1-1.959-1.984,1.959,1.959,0,1,1,1.959,1.959Zm16.535-10.413,1.866,2.645h-4.8v-2.645Zm-1.195,10.413v.025a1.983,1.983,0,0,1-1.959-1.984,1.959,1.959,0,1,1,1.959,1.959Zm3.889-2.449h-.98a2.939,2.939,0,0,0-5.838,0h-.979v-9.654h3.918l.5.7H846.3a.49.49,0,0,0-.49.49V404a.49.49,0,0,0,.49.49h5.976l.147.211Z" transform="translate(-826.673 -394.966)" fill="#004586"/>
      </g>
    </g>
    <g id="Ellipse_5698" data-name="Ellipse 5698" transform="translate(913 -799.299)" fill="none" stroke="#004586" stroke-width="1.3">
      <circle cx="12" cy="12" r="12" stroke="none"/>
      <circle cx="12" cy="12" r="11.35" fill="none"/>
    </g>
    <path id="Path_7186" data-name="Path 7186" d="M29.813,10.628h9.253L37.1,12.6a.313.313,0,0,0,0,.442.31.31,0,0,0,.221.092.314.314,0,0,0,.221-.091l2.5-2.5a.313.313,0,0,0,0-.442l-2.5-2.5a.313.313,0,0,0-.442.442L39.066,10H29.813a.313.313,0,1,0,0,.626Z" transform="translate(893.101 -799.434)" fill="#004586" stroke="#004586" stroke-width="0.5"/>
    <path id="Path_7187" data-name="Path 7187" d="M20.093,19.039a.313.313,0,0,0,.443-.442l-1.969-1.969h9.253a.313.313,0,0,0,0-.626H18.568l1.968-1.968a.313.313,0,0,0-.442-.442l-2.5,2.5a.313.313,0,0,0,0,.442Z" transform="translate(898.48 -802.451)" fill="#004586" stroke="#004586" stroke-width="0.5"/>
  </g>
</svg>
