<svg id="icon" xmlns="http://www.w3.org/2000/svg" xmlns:xlink="http://www.w3.org/1999/xlink" width="40" height="40" viewBox="0 0 40 40">
  <defs>
    <clipPath id="clip-path">
      <circle id="Ellipse_35" data-name="Ellipse 35" cx="14" cy="14" r="14" transform="translate(6 6)" fill="#ddeadb"/>
    </clipPath>
  </defs>
  <circle id="Ellipse_2" data-name="Ellipse 2" cx="20" cy="20" r="20" fill="rgba(0,108,201,0.1)"/>
  <g id="Mask_Group_15" data-name="Mask Group 15" clip-path="url(#clip-path)">
    <g id="delivery-truck" transform="translate(8 7.883)">
      <g id="Group_1401" data-name="Group 1401" transform="translate(0 4.117)">
        <path id="Path_1661" data-name="Path 1661" d="M23.545,11.264l-1.68-2.779a2.083,2.083,0,0,0-1.832-1.008H15.7v-1.4a1.968,1.968,0,0,0-1.954-1.954H1.954A1.968,1.968,0,0,0,0,6.072V16.638a1.968,1.968,0,0,0,1.954,1.954H2.962a2.933,2.933,0,0,0,5.68,0h7.329a2.933,2.933,0,0,0,5.68,0H22.9a.706.706,0,0,0,.733-.733v-6.2A1.515,1.515,0,0,0,23.545,11.264ZM5.8,19.326a1.5,1.5,0,1,1,1.5-1.5A1.48,1.48,0,0,1,5.8,19.326ZM11.818,8.82,7.7,12.974A.719.719,0,0,1,6.688,13L4.367,10.928a.714.714,0,0,1,.947-1.069l.031.031,1.8,1.619L10.78,7.874a.691.691,0,0,1,1.008.031A.59.59,0,0,1,11.818,8.82Zm7.054,10.505a1.5,1.5,0,1,1,1.5-1.5A1.5,1.5,0,0,1,18.873,19.326ZM15.7,10.958V8.943H20a.8.8,0,0,1,.641.336l1.038,1.68Z" transform="translate(0 -4.117)" fill="#006cc9"/>
      </g>
    </g>
  </g>
</svg>
