<svg xmlns="http://www.w3.org/2000/svg" xmlns:xlink="http://www.w3.org/1999/xlink" width="28" height="28" viewBox="0 0 28 28">
  <defs>
    <clipPath id="clip-path">
      <rect id="Rectangle_901" data-name="Rectangle 901" width="28" height="28" transform="translate(18 334)" fill="#fff"/>
    </clipPath>
  </defs>
  <g id="Mask_Group_2" data-name="Mask Group 2" transform="translate(-18 -334)" clip-path="url(#clip-path)">
    <g id="graphic" transform="translate(18 334)">
      <g id="Group_3582" data-name="Group 3582">
        <g id="Group_3581" data-name="Group 3581">
          <path id="Path_6313" data-name="Path 6313" d="M0,18.1v6.086a.82.82,0,0,0,.413.712L5.8,28V21.383Z" fill="#fff"/>
        </g>
      </g>
      <g id="Group_3584" data-name="Group 3584">
        <g id="Group_3583" data-name="Group 3583">
          <path id="Path_6314" data-name="Path 6314" d="M7.437,21.383V28l5.742-3.336V18.1Z" fill="#fff"/>
        </g>
      </g>
      <g id="Group_3586" data-name="Group 3586">
        <g id="Group_3585" data-name="Group 3585">
          <path id="Path_6315" data-name="Path 6315" d="M14.82,18.1v6.562L20.562,28V21.383Z" fill="#fff"/>
        </g>
      </g>
      <g id="Group_3588" data-name="Group 3588">
        <g id="Group_3587" data-name="Group 3587">
          <path id="Path_6316" data-name="Path 6316" d="M22.2,21.383V28l5.383-3.1A.82.82,0,0,0,28,24.188V18.1Z" fill="#fff"/>
        </g>
      </g>
      <g id="Group_3590" data-name="Group 3590">
        <g id="Group_3589" data-name="Group 3589">
          <path id="Path_6317" data-name="Path 6317" d="M21.383,13.18l-6.33,3.165,6.33,3.618,6.385-3.618Z" fill="#fff"/>
        </g>
      </g>
      <g id="Group_3592" data-name="Group 3592">
        <g id="Group_3591" data-name="Group 3591">
          <path id="Path_6318" data-name="Path 6318" d="M14.367.087a.821.821,0,0,0-.734,0L7.67,3.22,14,6.837,20.33,3.22Z" fill="#fff"/>
        </g>
      </g>
      <g id="Group_3594" data-name="Group 3594">
        <g id="Group_3593" data-name="Group 3593">
          <path id="Path_6319" data-name="Path 6319" d="M7.437,4.977v6.779l5.742,2.871V8.258Z" fill="#fff"/>
        </g>
      </g>
      <g id="Group_3596" data-name="Group 3596">
        <g id="Group_3595" data-name="Group 3595">
          <path id="Path_6320" data-name="Path 6320" d="M6.617,13.18.232,16.345l6.385,3.618,6.33-3.618Z" fill="#fff"/>
        </g>
      </g>
      <g id="Group_3598" data-name="Group 3598">
        <g id="Group_3597" data-name="Group 3597">
          <path id="Path_6321" data-name="Path 6321" d="M14.82,8.258v6.369l5.742-2.871V4.977Z" fill="#fff"/>
        </g>
      </g>
    </g>
  </g>
</svg>
