<svg xmlns="http://www.w3.org/2000/svg" xmlns:xlink="http://www.w3.org/1999/xlink" width="26" height="26" viewBox="0 0 26 26">
  <defs>
    <linearGradient id="linear-gradient" x1="0.5" x2="0.5" y2="1" gradientUnits="objectBoundingBox">
      <stop offset="0" stop-color="#f9f9f9"/>
      <stop offset="1" stop-color="#eaeff3"/>
    </linearGradient>
    <linearGradient id="linear-gradient-2" x1="0.5" x2="0.5" y2="1" gradientUnits="objectBoundingBox">
      <stop offset="0" stop-color="#f7931e"/>
      <stop offset="1" stop-color="#f73f1e"/>
    </linearGradient>
  </defs>
  <g id="Group_2772" data-name="Group 2772" transform="translate(-734 -191)">
    <g id="Ellipse_56" data-name="Ellipse 56" transform="translate(734 191)" stroke="#eaeff3" stroke-width="1" fill="url(#linear-gradient)">
      <circle cx="13" cy="13" r="13" stroke="none"/>
      <circle cx="13" cy="13" r="12.5" fill="none"/>
    </g>
    <path id="Path_6165" data-name="Path 6165" d="M22.715,88.092q0-1.044,0-2.089c0-.021-.027-.068.033-.059a.132.132,0,0,0,.083.008,6.866,6.866,0,0,1,2.9.592,7.379,7.379,0,0,1,1.69,1.048c.3.244.583.506.863.773s.535.533.809.793a4.555,4.555,0,0,0,.754.609,1.194,1.194,0,0,0,.56.182c.227.014.454.011.681.012q2.178,0,4.355,0h.043c.078,0,.08,0,.051-.077-.128-.316-.25-.634-.376-.951-.145-.364-.291-.728-.432-1.094-.006-.016-.013-.032-.018-.048a.2.2,0,0,1,.32-.229c.509.387,1.014.778,1.521,1.167.435.334.868.669,1.3,1,.49.374.976.753,1.467,1.126a.231.231,0,0,1,.1.15v.1a.329.329,0,0,1-.136.168c-.656.5-1.307,1-1.96,1.505q-1.111.855-2.223,1.709a1.059,1.059,0,0,1-.1.075.2.2,0,0,1-.3-.211.459.459,0,0,1,.032-.1q.4-1.011.8-2.021c.007-.018.015-.037.022-.056s0-.043-.031-.044h-.077q-2.5,0-4.995,0a1.1,1.1,0,0,0-.581.166,3.908,3.908,0,0,0-.6.462c-.263.235-.5.493-.756.738a12.107,12.107,0,0,1-1.737,1.464,7.018,7.018,0,0,1-2.984,1.113,8.072,8.072,0,0,1-.951.052c-.03,0-.062-.01-.091.008-.017,0-.037.009-.035-.026,0-.065,0-.131,0-.2V93.991c.031-.028.069-.021.106-.022a5.66,5.66,0,0,0,1.239-.155,4.885,4.885,0,0,0,1.709-.8,9.619,9.619,0,0,0,.946-.806c.271-.255.526-.527.8-.781.11-.1.215-.211.332-.305.081-.065.083-.085.007-.152-.377-.334-.722-.7-1.084-1.048a8.5,8.5,0,0,0-1.172-.972,4.835,4.835,0,0,0-2.1-.783,5.7,5.7,0,0,0-.687-.05A.115.115,0,0,1,22.715,88.092Z" transform="translate(716.962 112.924)" fill="url(#linear-gradient-2)"/>
  </g>
</svg>
