<svg xmlns="http://www.w3.org/2000/svg" width="15.052" height="23.354" viewBox="0 0 15.052 23.354">
  <g id="_001-place" data-name="001-place" transform="translate(-91)">
    <ellipse id="Ellipse_4" data-name="Ellipse 4" cx="3" cy="3.5" rx="3" ry="3.5" transform="translate(95.526 3.677)" fill="#c9c3c4"/>
    <path id="Path_1135" data-name="Path 1135" d="M98.526,0A7.453,7.453,0,0,0,91,7.526c0,4.3,6.715,12.5,7,12.845a.685.685,0,0,0,1.052,0c.285-.343,7-8.542,7-12.845A7.535,7.535,0,0,0,98.526,0Zm0,12.316a4.789,4.789,0,1,1,4.789-4.789A4.8,4.8,0,0,1,98.526,12.316Z" transform="translate(0 0)" fill="#fff"/>
    <path id="Path_1136" data-name="Path 1136" d="M103.137,377.811c-1.319,1.91-2.553,3.435-3.033,4.013a2.054,2.054,0,0,1-3.154,0c-.481-.579-1.715-2.105-3.035-4.016-1.771.626-2.915,1.6-2.915,2.7,0,1.889,3.37,3.421,7.526,3.421s7.526-1.532,7.526-3.421C106.052,379.412,104.908,378.437,103.137,377.811Z" transform="translate(0 -360.578)" fill="#c9c3c4"/>
  </g>
</svg>
