<svg xmlns="http://www.w3.org/2000/svg" width="22.683" height="24.428" viewBox="0 0 22.683 24.428">
  <g id="file" transform="translate(-48 -32)">
    <path id="Path_6939" data-name="Path 6939" d="M320,45.75V43.313l3.745,3.745h-2.437A1.31,1.31,0,0,1,320,45.75Z" transform="translate(-257.169 -10.696)" fill="#fff"/>
    <path id="Path_6940" data-name="Path 6940" d="M277.235,288a5.235,5.235,0,1,0,5.234,5.235A5.241,5.241,0,0,0,277.235,288Zm3.053,5.671h-3.053l-.046,0a.436.436,0,0,1-.291-.156c-.263-.314-.808-.968-1.287-1.544l-.893-1.072a.436.436,0,0,1,.671-.558l2.05,2.46h2.849a.436.436,0,1,1,0,.872Z" transform="translate(-211.786 -242.041)" fill="#fff"/>
    <path id="Path_6941" data-name="Path 6941" d="M64.14,37.235a2.183,2.183,0,0,1-2.181-2.181V32H49.309A1.31,1.31,0,0,0,48,33.309V55.119a1.31,1.31,0,0,0,1.309,1.309h13a6.106,6.106,0,0,1,4.887-11.087V37.235Zm-13.959-.872h5.235a.436.436,0,0,1,0,.872H50.181a.436.436,0,0,1,0-.872Zm0,2.617H52.8a.436.436,0,1,1,0,.872H50.181a.436.436,0,1,1,0-.872Zm0,2.617h8.724a.436.436,0,0,1,0,.872H50.181a.436.436,0,1,1,0-.872Zm0,2.617h5.235a.436.436,0,0,1,0,.872H50.181a.436.436,0,0,1,0-.872Zm3.49,8.724h-3.49a.436.436,0,0,1,0-.872h3.49a.436.436,0,0,1,0,.872Zm-3.926-3.053a.436.436,0,0,1,.436-.436H52.8a.436.436,0,0,1,0,.872H50.181A.436.436,0,0,1,49.745,49.885Zm7.416,3.053H55.416a.436.436,0,0,1,0-.872H57.16a.436.436,0,0,1,0,.872Zm0-2.617H54.543a.436.436,0,0,1,0-.872H57.16a.436.436,0,0,1,0,.872Zm.872-2.617H50.181a.436.436,0,0,1,0-.872h7.852a.436.436,0,1,1,0,.872Zm2.617-2.617H57.16a.436.436,0,0,1,0-.872h3.49a.436.436,0,0,1,0,.872Zm4.362-2.617H60.65a.436.436,0,1,1,0-.872h4.362a.436.436,0,1,1,0,.872Zm0-2.617H54.543a.436.436,0,1,1,0-.872H65.012a.436.436,0,1,1,0,.872Z" transform="translate(0)" fill="#fff"/>
  </g>
</svg>
