<svg xmlns="http://www.w3.org/2000/svg" width="36" height="29.491" viewBox="0 0 36 29.491">
  <g id="Group_5884" data-name="Group 5884" transform="translate(-1120 -236)">
    <g id="Group_5880" data-name="Group 5880" transform="translate(207 1035.299)">
      <g id="Group_5871" data-name="Group 5871" transform="translate(922.277 -787.259)">
        <g id="Group_3351" data-name="Group 3351" transform="translate(0 0)">
          <path id="Path_6276" data-name="Path 6276" d="M878.222,460.433a.49.49,0,0,0-.49-.49h-5.679a12.179,12.179,0,0,1-1.906.98h7.585A.49.49,0,0,0,878.222,460.433Z" transform="translate(-863.445 -449.926)" fill="#f7631e"/>
          <path id="Path_6277" data-name="Path 6277" d="M853.307,404.262l-.382-.544-1.048-1.469-2.679-3.835a.491.491,0,0,0-.4-.211h-4.149v-2.748a.49.49,0,0,0-.49-.49h-3.185q-.023.5-.085.98h2.78v1.249h-3.006q-.117.5-.275.98h3.281v10.663h-7.557a2.939,2.939,0,0,0-5.839,0h-2.61v-2.288q-.5-.045-.989-.13v2.908a.49.49,0,0,0,.49.49h3.1a2.939,2.939,0,0,0,5.838,0h9.5a2.939,2.939,0,0,0,5.838,0h1.47a.49.49,0,0,0,.485-.5v-4.771A.49.49,0,0,0,853.307,404.262Zm-20.115,7.023v.025a1.983,1.983,0,0,1-1.959-1.984,1.959,1.959,0,1,1,1.959,1.959Zm16.535-10.413,1.866,2.645h-4.8v-2.645Zm-1.195,10.413v.025a1.983,1.983,0,0,1-1.959-1.984,1.959,1.959,0,1,1,1.959,1.959Zm3.889-2.449h-.98a2.939,2.939,0,0,0-5.838,0h-.979v-9.654h3.918l.5.7H846.3a.49.49,0,0,0-.49.49V404a.49.49,0,0,0,.49.49h5.976l.147.211Z" transform="translate(-826.673 -394.966)" fill="#f7631e"/>
        </g>
      </g>
      <g id="Ellipse_5698" data-name="Ellipse 5698" transform="translate(913 -799.299)" fill="none" stroke="#f7631e" stroke-width="1.3">
        <circle cx="12" cy="12" r="12" stroke="none"/>
        <circle cx="12" cy="12" r="11.35" fill="none"/>
      </g>
    </g>
    <path id="Path_7185" data-name="Path 7185" d="M80.57,2.786a.272.272,0,0,0-.2-.079H78.876a3.023,3.023,0,0,0-.559-1.258h2.035a.268.268,0,0,0,.279-.279V.279A.269.269,0,0,0,80.352,0H73.085a.269.269,0,0,0-.279.279V1.441a.283.283,0,0,0,.279.279h1.266q1.843,0,2.341.987H73.085a.269.269,0,0,0-.279.279v.891a.269.269,0,0,0,.279.279h3.73a1.707,1.707,0,0,1-.9,1.092,3.941,3.941,0,0,1-1.856.376h-.978a.283.283,0,0,0-.279.279V7.013a.261.261,0,0,0,.079.192q1.677,1.782,4.35,4.987a.258.258,0,0,0,.218.1h1.7a.253.253,0,0,0,.253-.157.239.239,0,0,0-.035-.3q-2.55-3.127-4.009-4.681A4.43,4.43,0,0,0,77.776,6.2,3.265,3.265,0,0,0,78.9,4.157H80.37a.269.269,0,0,0,.279-.279V2.987A.272.272,0,0,0,80.57,2.786Z" transform="translate(1055.194 242.745)" fill="#f7631e"/>
  </g>
</svg>
