<svg xmlns="http://www.w3.org/2000/svg" width="29.465" height="28.498" viewBox="0 0 29.465 28.498">
  <g id="_002-scrum" data-name="002-scrum" transform="translate(-1 -1.483)">
    <path id="Path_6066" data-name="Path 6066" d="M45.457,6.83V23.253H36.279l-.116-.039A9.654,9.654,0,0,0,30,10.656V2H40.627V3.932H31.932v5.8H43.525V6.83Z" transform="translate(-14.992 -0.517)" fill="#f9f9f9"/>
    <path id="Path_6067" data-name="Path 6067" d="M6.313,55a9.6,9.6,0,0,0,5.8,1.932H1V55Z" transform="translate(0 -27.917)" fill="#fff"/>
    <path id="Path_6068" data-name="Path 6068" d="M13.66,36.389A7.728,7.728,0,1,0,5.932,28.66,7.726,7.726,0,0,0,13.66,36.389Zm5.777,0h9.2v-.966l2.415,1.932-2.415,1.932v-.966H13.66A9.668,9.668,0,1,1,22.722,32,9.71,9.71,0,0,1,19.437,36.389Z" transform="translate(-1.551 -9.306)" fill="#fff"/>
    <path id="Path_6070" data-name="Path 6070" d="M56.83,6.83H52V2Z" transform="translate(-26.366 -0.517)" fill="#f9f9f9"/>
    <path id="Path_6071" data-name="Path 6071" d="M20.9,33A2.9,2.9,0,1,1,18,35.9,2.9,2.9,0,0,1,20.9,33Zm.966,2.9a.966.966,0,1,0-.966.966A.969.969,0,0,0,21.864,35.9Z" transform="translate(-8.789 -16.543)" fill="#fcd770"/>
    <path id="Path_6072" data-name="Path 6072" d="M23.593,31.347v2.9l-1.309.328c-.019.048-.034.1-.058.145l.7,1.15-1.758,1.758-1.444-.4c-.048.024-.1.039-.145.058l-.328,1.309h-2.9l-.328-1.309c-.048-.019-.1-.034-.145-.058l-1.444.4-1.758-1.758.7-1.15c-.024-.048-.039-.1-.058-.145L12,34.245v-2.9l1.309-.328c.019-.048.034-.1.058-.145l-.7-1.15,2.053-2.053,1.15.7c.048-.024.1-.039.145-.058L16.347,27h2.9l.328,1.309c.048.019.1.034.145.058l1.15-.7,2.053,2.053-.7,1.15c.024.048.039.1.058.145Zm-2.9,1.449a2.9,2.9,0,1,0-2.9,2.9A2.9,2.9,0,0,0,20.694,32.8Z" transform="translate(-5.687 -13.441)" fill="#fff"/>
    <path id="Path_6073" data-name="Path 6073" d="M20.381,32a3.381,3.381,0,1,0,3.381,3.381A3.385,3.385,0,0,0,20.381,32Zm0,5.8A2.415,2.415,0,1,1,22.8,35.381,2.418,2.418,0,0,1,20.381,37.8Z" transform="translate(-8.272 -16.026)" fill="#133751"/>
    <path id="Path_6074" data-name="Path 6074" d="M22.449,36A1.449,1.449,0,1,0,23.9,37.449,1.451,1.451,0,0,0,22.449,36Zm0,1.932a.483.483,0,1,1,.483-.483A.484.484,0,0,1,22.449,37.932Z" transform="translate(-10.34 -18.094)" fill="#f7931e"/>
    <path id="Path_6075" data-name="Path 6075" d="M23.559,30.453l-1.167-.291.619-1.031-2.583-2.583-1.031.619L19.106,26H15.453l-.291,1.167-1.031-.619-2.583,2.583.619,1.031L11,30.453v3.653l1.167.291-.619,1.031L13.77,37.65l1.363-.376.32,1.285h3.653l.321-1.285,1.363.376,2.222-2.222L22.392,34.4l1.167-.291Zm-.966,2.9-1.181.3-.243.589.626,1.043L20.5,36.57l-1.339-.37-.519.212-.295,1.181H16.207l-.3-1.181-.519-.212-1.339.37-1.291-1.291.626-1.043-.242-.589-1.182-.3V31.207l1.181-.3.242-.59-.626-1.042,1.516-1.516,1.042.626.59-.242.3-1.181h2.144l.3,1.181.59.242,1.042-.626,1.516,1.516-.626,1.042.242.59,1.181.3Z" transform="translate(-5.17 -12.924)" fill="#fff"/>
    <g id="Group_2578" data-name="Group 2578">
      <path id="Path_6077" data-name="Path 6077" d="M47,21h5.8v.966H47Z" transform="translate(-23.781 -10.34)" fill="#133751"/>
      <path id="Path_6078" data-name="Path 6078" d="M47,25h5.8v.966H47Z" transform="translate(-23.781 -12.407)" fill="#133751"/>
      <path id="Path_6079" data-name="Path 6079" d="M47,29h5.8v.966H47Z" transform="translate(-23.781 -14.475)" fill="#133751"/>
      <path id="Path_6080" data-name="Path 6080" d="M47,33h5.8v.966H47Z" transform="translate(-23.781 -16.543)" fill="#133751"/>
      <path id="Path_6081" data-name="Path 6081" d="M57,37h.966v.966H57Z" transform="translate(-28.951 -18.611)"/>
      <path id="Path_6082" data-name="Path 6082" d="M47,37h3.864v.966H47Z" transform="translate(-23.781 -18.611)" fill="#133751"/>
      <path id="Path_6083" data-name="Path 6083" d="M47,41h5.8v.966H47Z" transform="translate(-23.781 -20.679)" fill="#133751"/>
    </g>
  </g>
</svg>
