<svg xmlns="http://www.w3.org/2000/svg" width="21.916" height="29.529" viewBox="0 0 21.916 29.529">
    <defs>
        <style>
            .prefix__cls-1{fill:#fff}
        </style>
    </defs>
    <g id="prefix__medal" transform="translate(-.5)">
        <path id="prefix__Path_6915" d="M40.5 48.651A8.651 8.651 0 1 0 49.151 40a8.661 8.661 0 0 0-8.651 8.651zm8.651-7.5a7.5 7.5 0 1 1-7.5 7.5 7.506 7.506 0 0 1 7.5-7.498zm0 0" class="prefix__cls-1" data-name="Path 6915" transform="translate(-37.693 -37.693)"/>
        <path id="prefix__Path_6916" d="M95.08 97.434l2.236 2.2-.514 3.1a.577.577 0 0 0 .835.606l2.785-1.446 2.785 1.446a.577.577 0 0 0 .835-.606l-.514-3.1 2.236-2.2a.577.577 0 0 0-.319-.981l-3.1-.467-1.4-2.807a.577.577 0 0 0-1.032 0l-1.4 2.807-3.1.467a.577.577 0 0 0-.319.981zm3.889-.352a.577.577 0 0 0 .43-.312l1.022-2.044 1.022 2.044a.577.577 0 0 0 .43.312l2.258.34-1.627 1.6a.578.578 0 0 0-.164.506l.374 2.253-2.027-1.053a.577.577 0 0 0-.531 0l-2.027 1.053.371-2.251a.577.577 0 0 0-.164-.506l-1.627-1.6zm0 0" class="prefix__cls-1" data-name="Path 6916" transform="translate(-88.964 -87.504)"/>
        <path id="prefix__Path_6917" d="M181.653.577a.577.577 0 1 1-.576-.577.577.577 0 0 1 .576.577zm0 0" class="prefix__cls-1" data-name="Path 6917" transform="translate(-169.619)"/>
        <path id="prefix__Path_6918" d="M8.74 5.6a10.959 10.959 0 0 0-4.633 18.743L.633 30.466a.577.577 0 0 0 .619.849L5.2 30.5l1.384 3.9a.577.577 0 0 0 1.045.092l3.829-6.732 3.829 6.74a.576.576 0 0 0 .5.292h.051a.578.578 0 0 0 .493-.382l1.387-3.91 3.946.819a.577.577 0 0 0 .619-.849l-3.475-6.124A10.959 10.959 0 0 0 14.176 5.6a.577.577 0 0 0-.285 1.118 9.8 9.8 0 1 1-4.866 0A.577.577 0 1 0 8.74 5.6zM7.25 32.83l-1.134-3.193a.577.577 0 0 0-.661-.372l-3.191.663 2.75-4.846a10.981 10.981 0 0 0 5.476 2.051zm10.21-3.566a.577.577 0 0 0-.661.372l-1.133 3.194-3.241-5.7a10.982 10.982 0 0 0 5.475-2.049l2.75 4.846zm0 0" class="prefix__cls-1" data-name="Path 6918" transform="translate(0 -5.259)"/>
    </g>
</svg>
