<svg xmlns="http://www.w3.org/2000/svg" id="prefix__more" width="18" height="5" viewBox="0 0 18 5">
    <defs>
        <style>
            .prefix__cls-1{fill:#133751}
        </style>
    </defs>
    <path id="prefix__Path_1607" d="M196.567 2.5a2.293 2.293 0 1 1-4.567 0 2.293 2.293 0 1 1 4.567 0zm0 0" class="prefix__cls-1" data-name="Path 1607" transform="translate(-185.284)"/>
    <path id="prefix__Path_1608" d="M4.567 2.5A2.4 2.4 0 0 1 2.284 5 2.4 2.4 0 0 1 0 2.5 2.4 2.4 0 0 1 2.284 0a2.4 2.4 0 0 1 2.283 2.5zm0 0" class="prefix__cls-1" data-name="Path 1608"/>
    <path id="prefix__Path_1609" d="M388.567 2.5a2.293 2.293 0 1 1-4.567 0 2.293 2.293 0 1 1 4.567 0zm0 0" class="prefix__cls-1" data-name="Path 1609" transform="translate(-370.567)"/>
</svg>
