<svg xmlns="http://www.w3.org/2000/svg" xmlns:xlink="http://www.w3.org/1999/xlink" width="123" height="123" viewBox="0 0 123 123">
  <defs>
    <linearGradient id="linear-gradient" x1="0.5" x2="0.5" y2="1" gradientUnits="objectBoundingBox">
      <stop offset="0" stop-color="#006cc9"/>
      <stop offset="1" stop-color="#145288"/>
    </linearGradient>
  </defs>
  <g id="partners" transform="translate(-1017 -122)">
    <g id="Ellipse_9" data-name="Ellipse 9" transform="translate(1017 122)" stroke="#ebeff3" stroke-width="1" opacity="0.1" fill="url(#linear-gradient)">
      <circle cx="61.5" cy="61.5" r="61.5" stroke="none"/>
      <circle cx="61.5" cy="61.5" r="61" fill="none"/>
    </g>
    <g id="_002-teamwork" data-name="002-teamwork" transform="translate(1049.547 153.547)">
      <g id="Group_793" data-name="Group 793" transform="translate(1.151 1.151)">
        <path id="Path_1114" data-name="Path 1114" d="M51.3,17.729a24.187,24.187,0,0,0-7.638-3.163V12.231A2.238,2.238,0,0,0,41.429,10H35.177a2.239,2.239,0,0,0-2.234,2.231v2.335a24.167,24.167,0,0,0-7.635,3.163l-1.653-1.65a2.24,2.24,0,0,0-3.157,0L16.079,20.5a2.24,2.24,0,0,0,0,3.157l1.653,1.653a24.13,24.13,0,0,0-3.167,7.635H12.231A2.239,2.239,0,0,0,10,35.177v6.252a2.238,2.238,0,0,0,2.231,2.231h2.335A24.117,24.117,0,0,0,17.732,51.3l-1.653,1.65a2.24,2.24,0,0,0,0,3.157L20.5,60.523a2.234,2.234,0,0,0,3.157,0l1.653-1.65a24.207,24.207,0,0,0,7.635,3.167v2.332a2.24,2.24,0,0,0,2.234,2.234h6.252a2.239,2.239,0,0,0,2.231-2.234V62.04A24.194,24.194,0,0,0,51.3,58.873l1.65,1.65a2.234,2.234,0,0,0,3.157,0L60.523,56.1a2.234,2.234,0,0,0,0-3.157l-1.65-1.65a24.193,24.193,0,0,0,3.167-7.638h2.332a2.241,2.241,0,0,0,2.234-2.221V35.164a2.241,2.241,0,0,0-2.234-2.221H62.04a24.207,24.207,0,0,0-3.167-7.635l1.65-1.653a2.234,2.234,0,0,0,0-3.157L56.1,16.079a2.24,2.24,0,0,0-3.157,0Zm-13,1.314A19.259,19.259,0,1,1,19.043,38.3,19.259,19.259,0,0,1,38.3,19.043Z" transform="translate(-10 -10)" fill="#006cc9" fill-rule="evenodd"/>
      </g>
      <g id="Group_795" data-name="Group 795" transform="translate(19.508 18.774)">
        <path id="Path_1116" data-name="Path 1116" d="M174.532,172.238a4.972,4.972,0,0,1,4.892-4.97,4.971,4.971,0,1,0-4.892,5.857h.078A4.962,4.962,0,0,1,174.532,172.238Z" transform="translate(-169.559 -163.182)" fill="#ffb100" fill-rule="evenodd"/>
      </g>
      <g id="Group_796" data-name="Group 796" transform="translate(24.481 22.861)">
        <path id="Path_1117" data-name="Path 1117" d="M222.73,203.669a4.974,4.974,0,0,0-4.9-4.97h-.156a4.97,4.97,0,1,0,4.974,5.857A5.3,5.3,0,0,0,222.73,203.669Z" transform="translate(-212.787 -198.699)" fill="#ffb100" fill-rule="evenodd"/>
      </g>
      <g id="Group_797" data-name="Group 797" transform="translate(29.53 18.774)">
        <path id="Path_1118" data-name="Path 1118" d="M266.532,168.154a4.972,4.972,0,0,0-9.865-.887,4.974,4.974,0,0,1,4.9,4.97,5.274,5.274,0,0,1-.078.887h.078a4.975,4.975,0,0,0,4.97-4.97Z" transform="translate(-256.667 -163.181)" fill="#ffb100" fill-rule="evenodd"/>
      </g>
      <g id="Group_798" data-name="Group 798" transform="translate(32.569 27.619)">
        <path id="Path_1119" data-name="Path 1119" d="M292.536,246.979a7.62,7.62,0,0,0-4.481-6.924,4.934,4.934,0,0,1-3.115,1.1h-.078a4.987,4.987,0,0,1-1.777,2.987,7.66,7.66,0,0,1,4.024,4.337h5.427v-1.5Z" transform="translate(-283.085 -240.056)" fill="#ffb100" fill-rule="evenodd"/>
      </g>
      <g id="Group_799" data-name="Group 799" transform="translate(21.856 31.705)">
        <path id="Path_1120" data-name="Path 1120" d="M204.705,279.91a7.659,7.659,0,0,0-4.024-4.337,4.967,4.967,0,0,1-6.232,0,7.665,7.665,0,0,0-4.028,4.337,7.566,7.566,0,0,0-.453,2.586V284h15.194v-1.5A7.487,7.487,0,0,0,204.705,279.91Z" transform="translate(-189.968 -275.573)" fill="#ffb100" fill-rule="evenodd"/>
      </g>
      <g id="Group_800" data-name="Group 800" transform="translate(16.883 27.619)">
        <path id="Path_1121" data-name="Path 1121" d="M152.167,248.479a7.666,7.666,0,0,1,4.028-4.337,4.971,4.971,0,0,1-1.777-2.987h-.078a4.944,4.944,0,0,1-3.118-1.1,7.625,7.625,0,0,0-4.481,6.924v1.5h5.427Z" transform="translate(-146.74 -240.055)" fill="#ffb100" fill-rule="evenodd"/>
      </g>
      <g id="Group_801" data-name="Group 801" transform="translate(0 0)">
        <path id="Path_1122" data-name="Path 1122" d="M55.522,22.943H54.093a25.278,25.278,0,0,0-2.618-6.31l1.01-1.012a3.385,3.385,0,0,0,0-4.786L48.068,6.416a3.391,3.391,0,0,0-4.784,0L42.273,7.428A25.261,25.261,0,0,0,35.96,4.812V3.381A3.385,3.385,0,0,0,32.579,0H26.327a3.387,3.387,0,0,0-3.384,3.381V4.812a25.23,25.23,0,0,0-6.31,2.615L15.619,6.416a3.391,3.391,0,0,0-4.784,0l-4.42,4.421a3.39,3.39,0,0,0,0,4.782L7.43,16.633a25.2,25.2,0,0,0-2.618,6.31H3.381A3.387,3.387,0,0,0,0,26.327v6.252A3.385,3.385,0,0,0,3.381,35.96H4.812A25.2,25.2,0,0,0,7.43,42.272L6.416,43.284a3.39,3.39,0,0,0,0,4.784l4.419,4.419a3.361,3.361,0,0,0,2.393.99h0a3.352,3.352,0,0,0,2.387-.989l1.014-1.012a25.281,25.281,0,0,0,6.31,2.618v1.429a3.388,3.388,0,0,0,3.384,3.384h6.252a3.387,3.387,0,0,0,3.381-3.384V54.093a25.275,25.275,0,0,0,6.313-2.617l1.01,1.01a3.385,3.385,0,0,0,4.786,0l4.417-4.418a3.385,3.385,0,0,0,0-4.786l-1.011-1.011a25.269,25.269,0,0,0,2.617-6.313h1.429a3.387,3.387,0,0,0,3.384-3.381V26.327a3.388,3.388,0,0,0-3.384-3.384Zm1.083,9.636a1.083,1.083,0,0,1-1.083,1.08H53.19a1.15,1.15,0,0,0-1.122.9,23,23,0,0,1-3.016,7.275,1.15,1.15,0,0,0,.158,1.429l1.652,1.652a1.084,1.084,0,0,1,0,1.528l-4.42,4.421a1.084,1.084,0,0,1-1.528,0l-1.65-1.65a1.151,1.151,0,0,0-1.429-.158,23.008,23.008,0,0,1-7.275,3.016,1.15,1.15,0,0,0-.9,1.122v2.332a1.083,1.083,0,0,1-1.08,1.083H26.327a1.085,1.085,0,0,1-1.083-1.083V53.19a1.15,1.15,0,0,0-.9-1.122,23.014,23.014,0,0,1-7.272-3.016,1.15,1.15,0,0,0-1.428.158L13.99,50.861a1.068,1.068,0,0,1-.761.315h0a1.076,1.076,0,0,1-.766-.316L8.043,46.441a1.1,1.1,0,0,1,0-1.529L9.7,43.262a1.151,1.151,0,0,0,.159-1.43,22.924,22.924,0,0,1-3.016-7.274,1.151,1.151,0,0,0-1.123-.9H3.381a1.081,1.081,0,0,1-1.08-1.08V26.327a1.083,1.083,0,0,1,1.08-1.083H5.716a1.151,1.151,0,0,0,1.123-.9,22.932,22.932,0,0,1,3.016-7.271A1.15,1.15,0,0,0,9.7,15.645L8.043,13.992a1.085,1.085,0,0,1,0-1.53l4.417-4.417a1.086,1.086,0,0,1,1.532,0l1.653,1.65a1.151,1.151,0,0,0,1.428.158,22.956,22.956,0,0,1,7.271-3.013,1.151,1.151,0,0,0,.9-1.123V3.381A1.083,1.083,0,0,1,26.327,2.3h6.252a1.081,1.081,0,0,1,1.08,1.08V5.716a1.15,1.15,0,0,0,.9,1.123,22.994,22.994,0,0,1,7.275,3.013,1.151,1.151,0,0,0,1.428-.159l1.65-1.65a1.1,1.1,0,0,1,1.53,0l4.419,4.419a1.084,1.084,0,0,1,0,1.531l-1.65,1.653a1.15,1.15,0,0,0-.158,1.428,23.015,23.015,0,0,1,3.016,7.272,1.15,1.15,0,0,0,1.122.9h2.332a1.085,1.085,0,0,1,1.083,1.083v6.252Z" transform="translate(0 0)" fill="#e6f0f8"/>
        <path id="Path_1125" data-name="Path 1125" d="M155.432,153.181a6.12,6.12,0,0,0-4.973,2.544,6.122,6.122,0,1,0-9.923,7.173,8.774,8.774,0,0,0-3.8,7.2v1.5a1.151,1.151,0,0,0,1.151,1.151h3.944a8.652,8.652,0,0,0-.121,1.436v1.5a1.151,1.151,0,0,0,1.151,1.151h15.194a1.151,1.151,0,0,0,1.15-1.151v-1.5a8.659,8.659,0,0,0-.121-1.436h3.941a1.151,1.151,0,0,0,1.151-1.151v-1.5a8.771,8.771,0,0,0-3.8-7.2,6.118,6.118,0,0,0-4.95-9.718Zm0,2.3a3.822,3.822,0,0,1,1.133,7.471,6.133,6.133,0,0,0-4.5-5.47A3.821,3.821,0,0,1,155.432,155.482Zm-8.793,7.906a3.821,3.821,0,1,1,3.819,3.823A3.824,3.824,0,0,1,146.639,163.388Zm-1.151-7.906a3.817,3.817,0,0,1,3.361,2,6.132,6.132,0,0,0-4.495,5.47,3.821,3.821,0,0,1,1.133-7.471Zm-6.448,14.967v-.35a6.472,6.472,0,0,1,3.24-5.584,6.084,6.084,0,0,0,2.388.853,6.11,6.11,0,0,0,.841,1.615,8.812,8.812,0,0,0-2.949,3.465Zm17.867,4.086H144.014v-.35a6.47,6.47,0,0,1,3.24-5.584,6.1,6.1,0,0,0,6.413,0,6.472,6.472,0,0,1,3.241,5.584v.35Zm4.97-4.436v.35H158.36a8.818,8.818,0,0,0-2.95-3.465,6.108,6.108,0,0,0,.841-1.615,6.078,6.078,0,0,0,2.386-.853A6.469,6.469,0,0,1,161.877,170.1Z" transform="translate(-121.007 -135.557)" fill="#e6f0f8"/>
      </g>
    </g>
  </g>
</svg>
