<svg id="Group_7838" data-name="Group 7838" xmlns="http://www.w3.org/2000/svg" width="16.17" height="16.17" viewBox="0 0 16.17 16.17">
  <g id="_006-bill" data-name="006-bill">
    <path id="Path_1131" data-name="Path 1131" d="M274.714.395A8.085,8.085,0,1,0,282.8,8.48,8.085,8.085,0,0,0,274.714.395ZM274.676,7.9a2.7,2.7,0,0,1,.513,5.342V14a.574.574,0,1,1-1.148,0v-.783a2.7,2.7,0,0,1-2.06-2.619.574.574,0,0,1,1.148,0,1.548,1.548,0,1,0,1.548-1.548,2.7,2.7,0,0,1-.636-5.316V3.01a.574.574,0,1,1,1.148,0v.7a2.7,2.7,0,0,1,2.183,2.647.574.574,0,0,1-1.148,0A1.549,1.549,0,0,0,274.7,4.807a.557.557,0,0,1-.087.007l-.053,0a1.547,1.547,0,0,0,.115,3.09Zm0,0" transform="translate(-266.629 -0.395)" fill="#fff"/>
    <ellipse id="Ellipse_3" data-name="Ellipse 3" cx="6.232" cy="6.232" rx="6.232" ry="6.232" transform="translate(2.22 2.29)" fill="#fff"/>
  </g>
  <g id="_007-rupee" data-name="007-rupee" transform="translate(3.602 2.148)">
    <g id="Group_808" data-name="Group 808" transform="translate(0)">
      <path id="Path_1134" data-name="Path 1134" d="M64.953,3.226H62.984A3.541,3.541,0,0,0,61.43.717h3.523A.375.375,0,0,0,65.34.358.375.375,0,0,0,64.953,0h-8.2a.375.375,0,0,0-.388.358.375.375,0,0,0,.388.358H59.1a3.06,3.06,0,0,1,3.1,2.509H56.753a.36.36,0,1,0,0,.717h5.453a3.062,3.062,0,0,1-3.1,2.545H56.756a.379.379,0,0,0-.388.369.357.357,0,0,0,.12.258l5.863,5.13a.408.408,0,0,0,.546-.014.347.347,0,0,0-.015-.513L57.725,7.206H59.1a3.812,3.812,0,0,0,3.887-3.262h1.969a.36.36,0,1,0,0-.717Z" transform="translate(-56.365)" fill="#133751"/>
    </g>
  </g>
</svg>
