<svg xmlns="http://www.w3.org/2000/svg" width="24.602" height="26.961" viewBox="0 0 24.602 26.961">
  <g id="agreement" transform="translate(-21.721)">
    <circle id="Ellipse_53" data-name="Ellipse 53" cx="8.762" cy="8.762" r="8.762" transform="translate(21.721 9.436)" fill="#c8c4c4"/>
    <rect id="Rectangle_795" data-name="Rectangle 795" width="15.587" height="18.157" transform="translate(30.357 1.811)" fill="#e1e6e9"/>
    <path id="Path_6094" data-name="Path 6094" d="M189.736,45.291H174.149a.378.378,0,0,1-.379-.379V26.755a.378.378,0,0,1,.379-.379h15.587a.378.378,0,0,1,.379.379V44.912A.378.378,0,0,1,189.736,45.291Zm-15.208-.758H189.4v-17.4H174.528Z" transform="translate(-143.792 -24.944)" fill="#193651"/>
    <rect id="Rectangle_796" data-name="Rectangle 796" width="12.68" height="15.25" transform="translate(31.814 3.244)" fill="#fff"/>
    <path id="Path_6095" data-name="Path 6095" d="M82.589,277.066c.59.295,2.317,1.011,2.275-.253.59.211,1.137-.042,1.1-.716a.789.789,0,0,0,1.1-.8c1.1.211,1.18-.927.674-1.6a8.978,8.978,0,0,0-1.306-1.222c-.716-.632-1.39-1.306-2.106-1.854a3.584,3.584,0,0,0-1.643-.505,6.224,6.224,0,0,1-2.865-.927l-2.233,3.328c.295.295.674.632,1.011.969" transform="translate(-52.822 -254.57)" fill="#fdbf5e"/>
    <path id="Path_6096" data-name="Path 6096" d="M77.683,272.04a4.446,4.446,0,0,1-1.727-.506.377.377,0,1,1,.337-.674c.59.295,1.39.548,1.643.379.084-.042.084-.126.084-.295a.328.328,0,0,1,.126-.295.318.318,0,0,1,.337-.042c.337.126.632.042.632-.337a.328.328,0,0,1,.126-.295.318.318,0,0,1,.337-.042c.379.126.59-.084.632-.463a.255.255,0,0,1,.126-.253.355.355,0,0,1,.295-.084q.379.063.506-.126a.823.823,0,0,0-.169-.885,11.208,11.208,0,0,0-1.011-.969l-.253-.211c-.253-.211-.463-.421-.716-.632-.463-.421-.927-.843-1.39-1.222a2.431,2.431,0,0,0-1.137-.379c-.126,0-.253-.042-.337-.042-.169-.042-.337-.042-.506-.084a6,6,0,0,1-2.191-.674l-1.854,2.738a1.834,1.834,0,0,0,.295.253,5.047,5.047,0,0,0,.506.463.357.357,0,0,1-.506.506c-.169-.168-.337-.295-.506-.463a5.049,5.049,0,0,0-.506-.463.334.334,0,0,1-.042-.463l2.233-3.328a.387.387,0,0,1,.253-.169.716.716,0,0,1,.295.042,4.713,4.713,0,0,0,2.233.758c.168.042.337.042.506.084a.927.927,0,0,0,.337.042,3.094,3.094,0,0,1,1.432.506c.506.379,1.011.843,1.474,1.264.211.211.463.421.674.632l.253.211a8.57,8.57,0,0,1,1.1,1.053,1.656,1.656,0,0,1,.253,1.727,1.127,1.127,0,0,1-.885.505,1.1,1.1,0,0,1-1.1.843,1,1,0,0,1-1.1.716A1.107,1.107,0,0,1,77.683,272.04Z" transform="translate(-46.357 -248.702)" fill="#193651"/>
    <path id="Path_6097" data-name="Path 6097" d="M147.2,249.826l3.5,3.033,1.474-.674v-3.834l-5.266-.885-2.233,1.98a.879.879,0,0,0-.042,1.264h0a.835.835,0,0,0,1.053.126Z" transform="translate(-116.002 -234.028)" fill="#fdbf5e"/>
    <path id="Path_6098" data-name="Path 6098" d="M143.63,246.633a.6.6,0,0,1-.253-.084l-3.286-2.865-1.348.843a1.189,1.189,0,0,1-.632.169h0a1.176,1.176,0,0,1-.843-.337,1.272,1.272,0,0,1,.042-1.811l2.233-1.98a.4.4,0,0,1,.295-.084l5.266.885a.369.369,0,0,1,.295.379v3.834a.43.43,0,0,1-.211.337l-1.474.674A.146.146,0,0,1,143.63,246.633Zm-3.5-3.791a.6.6,0,0,1,.253.084l3.286,2.865,1.053-.463v-3.286l-4.8-.8-2.106,1.854a.487.487,0,0,0,.548.8l1.559-.969A.71.71,0,0,1,140.133,242.841Z" transform="translate(-108.934 -227.423)" fill="#193651"/>
    <path id="Path_6099" data-name="Path 6099" d="M53.887,246.453l-2.359,3.5a.73.73,0,0,0,1.222.8l2.359-3.5a.738.738,0,0,0-.211-1.011A.746.746,0,0,0,53.887,246.453Z" transform="translate(-28.08 -232.762)" fill="#fff"/>
    <path id="Path_6100" data-name="Path 6100" d="M45.749,245.789h0a1.766,1.766,0,0,1-.632-.169,1.087,1.087,0,0,1-.295-1.517l2.359-3.5a1.092,1.092,0,0,1,1.811,1.222l-2.359,3.5A.992.992,0,0,1,45.749,245.789Zm2.022-4.8-2.359,3.5a.362.362,0,1,0,.59.421l2.359-3.5a.344.344,0,0,0-.084-.506A.355.355,0,0,0,47.771,240.986Z" transform="translate(-21.669 -227.084)" fill="#193651"/>
    <path id="Path_6101" data-name="Path 6101" d="M288.547,251.661v-4.213a.758.758,0,1,0-1.517,0v4.213a.755.755,0,0,0,.758.758A.815.815,0,0,0,288.547,251.661Z" transform="translate(-250.902 -233.294)" fill="#fff"/>
    <path id="Path_6102" data-name="Path 6102" d="M281.919,246.887h0a1.115,1.115,0,0,1-1.1-1.1v-4.213a1.1,1.1,0,0,1,2.191,0v4.213A1.062,1.062,0,0,1,281.919,246.887Zm0-5.687a.378.378,0,0,0-.379.379v4.213a.379.379,0,0,0,.758,0v-4.213A.378.378,0,0,0,281.919,241.2Z" transform="translate(-245.033 -227.425)" fill="#193651"/>
    <path id="Path_6103" data-name="Path 6103" d="M214.646,347.469a.6.6,0,0,1-.253-.084l-1.811-1.643a.359.359,0,0,1,.463-.548l1.812,1.643a.347.347,0,0,1,.042.505A.364.364,0,0,1,214.646,347.469Z" transform="translate(-180.371 -326.364)" fill="#193651"/>
    <path id="Path_6104" data-name="Path 6104" d="M197.369,365.877a.6.6,0,0,1-.253-.084l-1.6-1.432a.359.359,0,0,1,.463-.548l1.6,1.432a.347.347,0,0,1,.042.506A.255.255,0,0,1,197.369,365.877Z" transform="translate(-164.232 -343.971)" fill="#193651"/>
    <path id="Path_6105" data-name="Path 6105" d="M188.856,387.054a.364.364,0,0,1-.253-.126l-.969-.969a.357.357,0,0,1,.506-.505l.969.969a.384.384,0,0,1,0,.506A.3.3,0,0,1,188.856,387.054Z" transform="translate(-156.814 -364.432)" fill="#193651"/>
    <path id="Path_6106" data-name="Path 6106" d="M143,389.361h0a.722.722,0,0,0-1.011-.042l-.506.421a.717.717,0,0,0,.927,1.1l.506-.421A.743.743,0,0,0,143,389.361Z" transform="translate(-113.024 -368.002)" fill="#fdbf5e"/>
    <path id="Path_6107" data-name="Path 6107" d="M136.757,384.963h0a1.037,1.037,0,0,1-.8-.379,1.071,1.071,0,0,1,.126-1.517l.505-.421a1.076,1.076,0,1,1,1.39,1.643l-.505.421A1.144,1.144,0,0,1,136.757,384.963Zm.506-1.854a.272.272,0,0,0-.211.084l-.506.421a.359.359,0,0,0,.463.548l.505-.421a.383.383,0,0,0,.042-.506A.56.56,0,0,0,137.262,383.109Z" transform="translate(-107.79 -361.625)" fill="#193651"/>
    <path id="Path_6108" data-name="Path 6108" d="M89.93,341.521a.611.611,0,0,0-.885-.042l-.421.337a.611.611,0,0,0-.042.885h0a.611.611,0,0,0,.885.042l.421-.337A.612.612,0,0,0,89.93,341.521Z" transform="translate(-63.069 -322.774)" fill="#fdbf5e"/>
    <path id="Path_6109" data-name="Path 6109" d="M83.663,337.091h0a1.055,1.055,0,0,1-.758-.337,1.036,1.036,0,0,1,.084-1.39l.421-.337a.985.985,0,1,1,1.306,1.474l-.421.337A.929.929,0,0,1,83.663,337.091Zm.379-1.6a.318.318,0,0,0-.169.042l-.421.337a.261.261,0,0,0-.042.337.32.32,0,0,0,.169.084h0a.318.318,0,0,0,.169-.042l.421-.337a.261.261,0,0,0,.042-.337C84.211,335.532,84.126,335.49,84.042,335.49Z" transform="translate(-57.645 -316.617)" fill="#193651"/>
    <path id="Path_6110" data-name="Path 6110" d="M123.211,366.454a.677.677,0,0,0-.969-.084l-.927.843a.68.68,0,0,0-.084.969h0a.717.717,0,0,0,.969.084l.927-.843A.644.644,0,0,0,123.211,366.454Z" transform="translate(-93.949 -346.318)" fill="#fdbf5e"/>
    <path id="Path_6111" data-name="Path 6111" d="M114.947,362h0a1.074,1.074,0,0,1-1.053-1.137.938.938,0,0,1,.379-.716l.927-.843a1.11,1.11,0,0,1,1.517.084,1.076,1.076,0,0,1-.126,1.517l-.927.843A1.144,1.144,0,0,1,114.947,362Zm.969-2.191a.272.272,0,0,0-.211.084l-.927.843a.232.232,0,0,0-.126.211.6.6,0,0,0,.084.253.334.334,0,0,0,.463.042l.927-.843a.334.334,0,0,0,.042-.463A.364.364,0,0,0,115.916,359.81Z" transform="translate(-87.16 -339.546)" fill="#193651"/>
    <path id="Path_6112" data-name="Path 6112" d="M103.028,344.257a.667.667,0,0,0-.927-.084l-1.432,1.264a.658.658,0,1,0,.843,1.011l1.432-1.264A.625.625,0,0,0,103.028,344.257Z" transform="translate(-74.441 -325.342)" fill="#fdbf5e"/>
    <path id="Path_6113" data-name="Path 6113" d="M94.877,341.2h0a.986.986,0,0,1-.758-.337,1.176,1.176,0,0,1-.253-.758,1.038,1.038,0,0,1,.337-.716l1.432-1.264a1.088,1.088,0,0,1,1.432.084,1.176,1.176,0,0,1,.253.758,1.038,1.038,0,0,1-.337.716l-1.432,1.264A1.194,1.194,0,0,1,94.877,341.2Zm1.432-2.57a.272.272,0,0,0-.211.084l-1.432,1.264a.324.324,0,0,0-.042.421c.042.084.126.084.211.084h0a.272.272,0,0,0,.211-.084l1.432-1.264a.322.322,0,0,0,.084-.211c0-.084,0-.169-.084-.211C96.478,338.634,96.394,338.634,96.309,338.634Z" transform="translate(-68.227 -319.551)" fill="#193651"/>
    <path id="Path_6114" data-name="Path 6114" d="M260.42,9.889h-8.3l1.39-2.907h5.519Z" transform="translate(-217.888 -6.603)" fill="#f16051"/>
    <path id="Path_6115" data-name="Path 6115" d="M254.069,3.665h-8.3a.355.355,0,0,1-.295-.169.338.338,0,0,1-.042-.337l1.39-2.949A.334.334,0,0,1,247.16,0h5.561a.43.43,0,0,1,.337.211l1.348,2.865a.322.322,0,0,1,.084.211A.448.448,0,0,1,254.069,3.665Zm-7.751-.758h7.162L252.426.716h-5.055Z" transform="translate(-211.537)" fill="#193651"/>
    <rect id="Rectangle_797" data-name="Rectangle 797" width="1.517" height="1.517" transform="translate(33.264 5.434)" fill="#fff"/>
    <path id="Path_6116" data-name="Path 6116" d="M229.193,94.59h-1.517a.378.378,0,0,1-.379-.379V92.694a.378.378,0,0,1,.379-.379h1.517a.378.378,0,0,1,.379.379v1.517A.378.378,0,0,1,229.193,94.59Zm-1.137-.716h.8v-.8h-.8Z" transform="translate(-194.412 -87.302)" fill="#193651"/>
    <rect id="Rectangle_798" data-name="Rectangle 798" width="1.517" height="1.517" transform="translate(33.264 9.226)" fill="#fff"/>
    <g id="Group_2636" data-name="Group 2636" transform="translate(32.885 5.771)">
      <path id="Path_6117" data-name="Path 6117" d="M229.193,165.184h-1.517a.378.378,0,0,1-.379-.379v-1.517a.378.378,0,0,1,.379-.379h1.517a.378.378,0,0,1,.379.379V164.8A.378.378,0,0,1,229.193,165.184Zm-1.137-.758h.8v-.8h-.8Z" transform="translate(-227.297 -159.834)" fill="#193651"/>
      <path id="Path_6118" data-name="Path 6118" d="M313.663,107.036h-5.308a.379.379,0,0,1,0-.758h5.308a.378.378,0,0,1,.379.379A.445.445,0,0,1,313.663,107.036Z" transform="translate(-303.595 -106.278)" fill="#193651"/>
      <path id="Path_6119" data-name="Path 6119" d="M313.663,177.63h-5.308a.379.379,0,0,1,0-.758h5.308a.378.378,0,0,1,.379.379A.445.445,0,0,1,313.663,177.63Z" transform="translate(-303.595 -173.038)" fill="#193651"/>
      <path id="Path_6120" data-name="Path 6120" d="M345.943,247.449h-3.454a.379.379,0,1,1,0-.758h3.454a.378.378,0,0,1,.379.379A.445.445,0,0,1,345.943,247.449Z" transform="translate(-335.874 -239.066)" fill="#193651"/>
      <rect id="Rectangle_799" data-name="Rectangle 799" width="0.716" height="0.716" transform="translate(6.235 10.7)" fill="#193651"/>
      <rect id="Rectangle_800" data-name="Rectangle 800" width="0.716" height="0.716" transform="translate(7.962 10.7)" fill="#193651"/>
      <rect id="Rectangle_801" data-name="Rectangle 801" width="0.716" height="0.716" transform="translate(9.689 10.7)" fill="#193651"/>
    </g>
  </g>
</svg>
