<svg xmlns="http://www.w3.org/2000/svg" width="28.441" height="28.441" viewBox="0 0 28.441 28.441">
    <defs>
        <style>
            .prefix__cls-1{fill:#fff;fill-rule:evenodd}.prefix__cls-2{fill:#133751}
        </style>
    </defs>
    <g id="prefix___002-teamwork" data-name="002-teamwork">
        <g id="prefix__Group_793" data-name="Group 793" transform="translate(.556 .555)">
            <path id="prefix__Path_1114" d="M29.939 13.732a11.678 11.678 0 0 0-3.688-1.532v-1.123A1.081 1.081 0 0 0 25.174 10h-3.018a1.081 1.081 0 0 0-1.079 1.077V12.2a11.668 11.668 0 0 0-3.686 1.527l-.8-.8a1.082 1.082 0 0 0-1.524 0l-2.134 2.134a1.082 1.082 0 0 0 0 1.524l.8.8a11.65 11.65 0 0 0-1.533 3.692h-1.123A1.081 1.081 0 0 0 10 22.156v3.019a1.081 1.081 0 0 0 1.077 1.077H12.2a11.644 11.644 0 0 0 1.529 3.688l-.8.8a1.082 1.082 0 0 0 0 1.524l2.134 2.134a1.079 1.079 0 0 0 1.524 0l.8-.8a11.688 11.688 0 0 0 3.686 1.529v1.126a1.081 1.081 0 0 0 1.079 1.079h3.019a1.081 1.081 0 0 0 1.077-1.079v-1.127a11.681 11.681 0 0 0 3.691-1.526l.8.8a1.079 1.079 0 0 0 1.524 0l2.134-2.134a1.079 1.079 0 0 0 0-1.524l-.8-.8a11.681 11.681 0 0 0 1.529-3.688h1.126a1.082 1.082 0 0 0 1.079-1.072V22.15a1.082 1.082 0 0 0-1.079-1.072h-1.126a11.688 11.688 0 0 0-1.526-3.687l.8-.8a1.079 1.079 0 0 0 0-1.524l-2.14-2.132a1.082 1.082 0 0 0-1.524 0zm-6.275.635a9.3 9.3 0 1 1-9.3 9.3 9.3 9.3 0 0 1 9.3-9.301z" class="prefix__cls-1" data-name="Path 1114" transform="translate(-10 -10)"/>
        </g>
        <g id="prefix__Group_795" data-name="Group 795" transform="translate(9.419 9.065)">
            <path id="prefix__Path_1116" d="M171.96 167.555a2.4 2.4 0 0 1 2.362-2.4 2.4 2.4 0 1 0-2.362 2.828h.04a2.4 2.4 0 0 1-.04-.428z" class="prefix__cls-1" data-name="Path 1116" transform="translate(-169.559 -163.182)"/>
        </g>
        <g id="prefix__Group_796" data-name="Group 796" transform="translate(11.82 11.038)">
            <path id="prefix__Path_1117" d="M217.588 201.1a2.4 2.4 0 0 0-2.364-2.4h-.076a2.4 2.4 0 1 0 2.4 2.828 2.561 2.561 0 0 0 .04-.428z" class="prefix__cls-1" data-name="Path 1117" transform="translate(-212.787 -198.699)"/>
        </g>
        <g id="prefix__Group_797" data-name="Group 797" transform="translate(14.258 9.065)">
            <path id="prefix__Path_1118" d="M261.43 165.582a2.4 2.4 0 0 0-4.763-.428 2.4 2.4 0 0 1 2.363 2.4 2.548 2.548 0 0 1-.038.428h.038a2.4 2.4 0 0 0 2.4-2.4z" class="prefix__cls-1" data-name="Path 1118" transform="translate(-256.667 -163.181)"/>
        </g>
        <g id="prefix__Group_798" data-name="Group 798" transform="translate(15.725 13.335)">
            <path id="prefix__Path_1119" d="M287.648 243.4a3.679 3.679 0 0 0-2.163-3.343 2.382 2.382 0 0 1-1.5.531h-.038a2.408 2.408 0 0 1-.858 1.442 3.7 3.7 0 0 1 1.943 2.094h2.62v-.724z" class="prefix__cls-1" data-name="Path 1119" transform="translate(-283.085 -240.056)"/>
        </g>
        <g id="prefix__Group_799" data-name="Group 799" transform="translate(10.553 15.308)">
            <path id="prefix__Path_1120" d="M197.084 277.667a3.7 3.7 0 0 0-1.943-2.094 2.4 2.4 0 0 1-3.009 0 3.7 3.7 0 0 0-1.945 2.094 3.653 3.653 0 0 0-.219 1.249v.724h7.332v-.724a3.615 3.615 0 0 0-.216-1.249z" class="prefix__cls-1" data-name="Path 1120" transform="translate(-189.968 -275.573)"/>
        </g>
        <g id="prefix__Group_800" data-name="Group 800" transform="translate(8.151 13.335)">
            <path id="prefix__Path_1121" d="M149.36 244.122a3.7 3.7 0 0 1 1.945-2.094 2.4 2.4 0 0 1-.858-1.442h-.038a2.387 2.387 0 0 1-1.505-.531 3.682 3.682 0 0 0-2.163 3.343v.724h2.62z" class="prefix__cls-1" data-name="Path 1121" transform="translate(-146.74 -240.055)"/>
        </g>
        <g id="prefix__Group_801" data-name="Group 801">
            <path id="prefix__Path_1122" d="M26.807 11.077h-.69a12.2 12.2 0 0 0-1.264-3.047l.488-.489a1.634 1.634 0 0 0 0-2.311L23.208 3.1a1.637 1.637 0 0 0-2.31 0l-.488.488a12.2 12.2 0 0 0-3.048-1.263v-.692A1.634 1.634 0 0 0 15.73 0h-3.019a1.635 1.635 0 0 0-1.634 1.633v.691a12.181 12.181 0 0 0-3.046 1.262l-.49-.486a1.637 1.637 0 0 0-2.31 0L3.1 5.232a1.637 1.637 0 0 0 0 2.309l.49.49a12.168 12.168 0 0 0-1.264 3.046h-.693A1.635 1.635 0 0 0 0 12.711v3.019a1.634 1.634 0 0 0 1.633 1.633h.691a12.165 12.165 0 0 0 1.263 3.047l-.487.49a1.637 1.637 0 0 0 0 2.31l2.134 2.134a1.623 1.623 0 0 0 1.155.478 1.618 1.618 0 0 0 1.152-.478l.49-.489a12.206 12.206 0 0 0 3.047 1.264v.69a1.636 1.636 0 0 0 1.634 1.634h3.018a1.635 1.635 0 0 0 1.633-1.634v-.69a12.2 12.2 0 0 0 3.048-1.264l.487.487a1.634 1.634 0 0 0 2.311 0l2.133-2.133a1.634 1.634 0 0 0 0-2.311l-.488-.488a12.2 12.2 0 0 0 1.264-3.048h.69a1.635 1.635 0 0 0 1.634-1.633v-3.018a1.636 1.636 0 0 0-1.634-1.634zm.523 4.653a.523.523 0 0 1-.523.522h-1.126a.555.555 0 0 0-.542.434 11.106 11.106 0 0 1-1.456 3.514.555.555 0 0 0 .076.69l.8.8a.523.523 0 0 1 0 .738l-2.134 2.134a.523.523 0 0 1-.738 0l-.8-.8a.556.556 0 0 0-.69-.076 11.109 11.109 0 0 1-3.513 1.456.555.555 0 0 0-.434.542v1.126a.523.523 0 0 1-.522.523h-3.017a.524.524 0 0 1-.523-.523v-1.129a.555.555 0 0 0-.433-.542 11.112 11.112 0 0 1-3.511-1.456.555.555 0 0 0-.69.076l-.8.8a.516.516 0 0 1-.368.152.52.52 0 0 1-.37-.153l-2.133-2.135a.529.529 0 0 1 0-.738l.8-.8a.556.556 0 0 0 .077-.69 11.068 11.068 0 0 1-1.46-3.509.556.556 0 0 0-.542-.434H1.633a.522.522 0 0 1-.522-.522v-3.019a.523.523 0 0 1 .522-.523H2.76a.556.556 0 0 0 .542-.434 11.072 11.072 0 0 1 1.456-3.51.555.555 0 0 0-.076-.69l-.8-.8a.524.524 0 0 1 0-.739l2.134-2.131a.524.524 0 0 1 .74 0l.8.8a.556.556 0 0 0 .689.076 11.084 11.084 0 0 1 3.509-1.46.556.556 0 0 0 .434-.542V1.633a.523.523 0 0 1 .523-.522h3.019a.522.522 0 0 1 .522.522V2.76a.555.555 0 0 0 .434.542A11.1 11.1 0 0 1 20.2 4.757a.556.556 0 0 0 .69-.077l.8-.8a.529.529 0 0 1 .739 0l2.134 2.134a.523.523 0 0 1 0 .739l-.8.8a.555.555 0 0 0-.076.69 11.112 11.112 0 0 1 1.456 3.511.555.555 0 0 0 .542.433h1.126a.524.524 0 0 1 .523.523v3.02z" class="prefix__cls-2" data-name="Path 1122"/>
            <path id="prefix__Path_1125" d="M145.764 153.181a2.955 2.955 0 0 0-2.4 1.228 2.956 2.956 0 1 0-4.791 3.463 4.236 4.236 0 0 0-1.833 3.477v.724a.556.556 0 0 0 .556.555h1.9a4.177 4.177 0 0 0-.059.693v.724a.556.556 0 0 0 .555.555h7.336a.556.556 0 0 0 .555-.555v-.724a4.181 4.181 0 0 0-.059-.693h1.9a.556.556 0 0 0 .556-.555v-.724a4.235 4.235 0 0 0-1.833-3.477 2.954 2.954 0 0 0-2.39-4.692zm0 1.111a1.845 1.845 0 0 1 .547 3.607 2.961 2.961 0 0 0-2.172-2.641 1.845 1.845 0 0 1 1.625-.966zm-4.245 3.817a1.845 1.845 0 1 1 1.844 1.846 1.846 1.846 0 0 1-1.844-1.846zm-.556-3.817a1.843 1.843 0 0 1 1.623.966 2.961 2.961 0 0 0-2.17 2.641 1.845 1.845 0 0 1 .547-3.607zm-3.113 7.227v-.169a3.125 3.125 0 0 1 1.565-2.7 2.937 2.937 0 0 0 1.153.412 2.951 2.951 0 0 0 .406.78 4.254 4.254 0 0 0-1.424 1.673zm8.626 1.973h-6.225v-.169a3.124 3.124 0 0 1 1.564-2.7 2.948 2.948 0 0 0 3.1 0 3.125 3.125 0 0 1 1.565 2.7v.169zm2.4-2.142v.169h-1.7a4.257 4.257 0 0 0-1.424-1.673 2.95 2.95 0 0 0 .406-.78 2.934 2.934 0 0 0 1.152-.412 3.124 3.124 0 0 1 1.566 2.696z" class="prefix__cls-2" data-name="Path 1125" transform="translate(-129.143 -144.672)"/>
        </g>
    </g>
</svg>
