<svg id="icon" xmlns="http://www.w3.org/2000/svg" xmlns:xlink="http://www.w3.org/1999/xlink" width="40" height="40" viewBox="0 0 40 40">
  <defs>
    <clipPath id="clip-path">
      <circle id="Ellipse_35" data-name="Ellipse 35" cx="14" cy="14" r="14" transform="translate(6 6)" fill="#ddeadb"/>
    </clipPath>
  </defs>
  <circle id="Ellipse_2" data-name="Ellipse 2" cx="20" cy="20" r="20" fill="rgba(255,177,0,0.1)"/>
  <g id="Mask_Group_14" data-name="Mask Group 14" clip-path="url(#clip-path)">
    <g id="time" transform="translate(8.043 9)">
      <g id="Group_1400" data-name="Group 1400" transform="translate(3.957)">
        <path id="Path_1660" data-name="Path 1660" d="M18.847,20.326h-.709V16.545a6.384,6.384,0,0,0-3.471-5.672A6.379,6.379,0,0,0,18.138,5.2V1.418h.709a.709.709,0,1,0,0-1.418H4.666a.709.709,0,0,0,0,1.418h.709V5.2a6.379,6.379,0,0,0,3.471,5.672,6.383,6.383,0,0,0-3.471,5.672v3.782H4.666a.709.709,0,0,0,0,1.418H18.847a.709.709,0,0,0,0-1.418ZM6.814,5.628c-.035-.4-.022-.232-.022-4.21H16.72c0,3.978.013,3.806-.022,4.21ZM16.72,19.522c-3.912-3.26-3.769-3.2-4.254-3.373v-.786a.709.709,0,0,0-1.418,0v.786c-.48.17-.33.1-4.254,3.373V16.545a4.967,4.967,0,0,1,4.254-4.907v.889a.709.709,0,0,0,1.418,0v-.889a4.967,4.967,0,0,1,4.254,4.907Z" transform="translate(-3.957)" fill="#ffb100"/>
      </g>
    </g>
  </g>
</svg>
