<svg xmlns="http://www.w3.org/2000/svg" width="15.153" height="16.41" viewBox="0 0 15.153 16.41">
  <g id="noun_deadline_2017232" transform="translate(0.2 0.2)">
    <g id="Group_5894" data-name="Group 5894">
      <g id="Group_5888" data-name="Group 5888" transform="translate(0 0)">
        <path id="Path_7188" data-name="Path 7188" d="M3.5,5.176A4.163,4.163,0,0,0,5.975,9v7.251a.737.737,0,0,0,.75.75c8.551,0,8.126.05,8.226-.075,3.476-3.5,3.251-3.226,3.276-3.326a.252.252,0,0,1,.025-.075V3.951a.737.737,0,0,0-.75-.75H11.351A4.174,4.174,0,0,0,3.5,5.176Zm.75-.25H4A3.617,3.617,0,0,1,4.9,2.75l.175.175a.248.248,0,0,0,.35-.35L5.25,2.4a3.617,3.617,0,0,1,2.175-.9v.25a.25.25,0,0,0,.5,0V1.5a3.617,3.617,0,0,1,2.175.9l-.175.175a.248.248,0,0,0,.35.35l.175-.175a3.617,3.617,0,0,1,.9,2.175h-.225a.25.25,0,0,0,0,.5h.225a3.617,3.617,0,0,1-.9,2.175l-.175-.175a.248.248,0,0,0-.35.35l.175.175a3.617,3.617,0,0,1-2.175.9V8.626a.25.25,0,1,0-.5,0v.225a3.617,3.617,0,0,1-2.175-.9l.175-.175a.248.248,0,0,0-.35-.35L4.9,7.6A3.617,3.617,0,0,1,4,5.426h.225a.236.236,0,0,0,.25-.25A.23.23,0,0,0,4.25,4.926ZM15.027,16.153V13.777H17.4ZM17.5,3.7a.236.236,0,0,1,.25.25v9.327H14.777a.236.236,0,0,0-.25.25V16.5h-7.8a.236.236,0,0,1-.25-.25V9.2a3.769,3.769,0,0,0,1.2.175A4.183,4.183,0,0,0,11.851,5.2h0a4.073,4.073,0,0,0-.275-1.475H17.5Z" transform="translate(-3.5 -1)" fill="#0465ba" stroke="#0465ba" stroke-width="0.4"/>
      </g>
      <g id="Group_5889" data-name="Group 5889" transform="translate(2.894 3.951)">
        <path id="Path_7189" data-name="Path 7189" d="M15.231,19.7a.248.248,0,0,0,.325-.125l.95-2.275h2.05a.25.25,0,1,0,0-.5H16.331a.219.219,0,0,0-.225.15l-1.025,2.425A.286.286,0,0,0,15.231,19.7Z" transform="translate(-15.075 -16.8)" fill="#0465ba" stroke="#0465ba" stroke-width="0.4"/>
      </g>
      <g id="Group_5890" data-name="Group 5890" transform="translate(4.526 12.277)">
        <path id="Path_7190" data-name="Path 7190" d="M26.5,50.1H21.85a.25.25,0,1,0,0,.5h4.676a.236.236,0,0,0,.25-.25A.273.273,0,0,0,26.5,50.1Z" transform="translate(-21.6 -50.1)" fill="#0465ba" stroke="#0465ba" stroke-width="0.4"/>
      </g>
      <g id="Group_5891" data-name="Group 5891" transform="translate(4.526 10.002)">
        <path id="Path_7191" data-name="Path 7191" d="M29.976,41H21.85a.25.25,0,1,0,0,.5h8.126a.236.236,0,0,0,.25-.25A.251.251,0,0,0,29.976,41Z" transform="translate(-21.6 -41)" fill="#0465ba" stroke="#0465ba" stroke-width="0.4"/>
      </g>
      <g id="Group_5892" data-name="Group 5892" transform="translate(8.276 7.701)">
        <path id="Path_7192" data-name="Path 7192" d="M36.6,32.05a.236.236,0,0,0,.25.25h4.376a.25.25,0,0,0,0-.5H36.85A.251.251,0,0,0,36.6,32.05Z" transform="translate(-36.6 -31.8)" fill="#0465ba" stroke="#0465ba" stroke-width="0.4"/>
      </g>
      <g id="Group_5893" data-name="Group 5893" transform="translate(9.527 5.426)">
        <path id="Path_7193" data-name="Path 7193" d="M41.85,23.2h3.126a.25.25,0,0,0,0-.5H41.85a.25.25,0,0,0,0,.5Z" transform="translate(-41.6 -22.7)" fill="#0465ba" stroke="#0465ba" stroke-width="0.4"/>
      </g>
    </g>
  </g>
</svg>
