<svg xmlns="http://www.w3.org/2000/svg" id="prefix__rupee_4_" width="11.545" height="17.164" data-name="rupee (4)" viewBox="0 0 11.545 17.164">
    <g id="prefix__Group_216" data-name="Group 216">
        <path id="prefix__Path_31" d="M67.411 4.486h-2.532A4.991 4.991 0 0 0 62.88 1h4.531a.5.5 0 0 0 0-1H56.863a.5.5 0 0 0 0 1h3.021a4.028 4.028 0 0 1 3.993 3.489h-7.014a.5.5 0 0 0 0 1h7.014a4.035 4.035 0 0 1-3.993 3.539h-3.016a.506.506 0 0 0-.5.513.515.515 0 0 0 .155.359l7.542 7.133a.5.5 0 0 0 .7-.02.509.509 0 0 0-.02-.713l-6.63-6.28h1.765a5.035 5.035 0 0 0 5-4.536h2.532a.5.5 0 0 0 0-1z" data-name="Path 31" transform="translate(-56.365)" style="fill:#006cc9"/>
    </g>
</svg>
