<svg xmlns="http://www.w3.org/2000/svg" id="prefix__rupee_5_" width="9.118" height="13.557" data-name="rupee (5)" viewBox="0 0 9.118 13.557">
    <g id="prefix__Group_616" data-name="Group 616">
        <path id="prefix__Path_1013" d="M65.09 3.543h-2A3.942 3.942 0 0 0 61.511.787h3.579a.394.394 0 1 0 0-.787h-8.331a.394.394 0 0 0 0 .787h2.386A3.182 3.182 0 0 1 62.3 3.543h-5.541a.394.394 0 0 0 0 .787H62.3a3.187 3.187 0 0 1-3.154 2.8h-2.383a.4.4 0 0 0-.394.406.407.407 0 0 0 .122.283l5.957 5.634a.392.392 0 0 0 .552-.02.4.4 0 0 0-.016-.563l-5.24-4.957h1.394a3.977 3.977 0 0 0 3.952-3.582h2a.394.394 0 1 0 0-.787z" data-name="Path 1013" transform="translate(-56.365)" style="fill:#f7931e"/>
    </g>
</svg>
