<svg xmlns="http://www.w3.org/2000/svg" width="9.826" height="14.608" viewBox="0 0 9.826 14.608">
    <g id="prefix__rupee_5_" data-name="rupee (5)">
        <g id="prefix__Group_616" data-name="Group 616">
            <path id="prefix__Path_1013" d="M65.766 3.818h-2.155a4.247 4.247 0 0 0-1.7-2.97h3.856a.424.424 0 1 0 0-.848h-8.978a.424.424 0 1 0 0 .848h2.571a3.428 3.428 0 0 1 3.4 2.97h-5.971a.424.424 0 1 0 0 .848h5.969a3.434 3.434 0 0 1-3.4 3.012h-2.565a.431.431 0 0 0-.424.437.438.438 0 0 0 .132.305l6.419 6.071a.423.423 0 0 0 .6-.017.433.433 0 0 0-.017-.607l-5.649-5.34h1.5a4.285 4.285 0 0 0 4.255-3.861h2.155a.424.424 0 1 0 0-.848z" data-name="Path 1013" transform="translate(-56.365)" style="fill:#1fc900"/>
        </g>
    </g>
</svg>
