<svg xmlns="http://www.w3.org/2000/svg" id="prefix__rupee_4_" width="8.404" height="12.495" data-name="rupee (4)" viewBox="0 0 8.404 12.495">
    <g id="prefix__Group_216" data-name="Group 216">
        <path id="prefix__Path_31" d="M64.407 3.266h-1.844a3.633 3.633 0 0 0-1.455-2.54h3.3a.363.363 0 0 0 0-.726h-7.68a.363.363 0 0 0 0 .726h2.2a2.932 2.932 0 0 1 2.907 2.54h-5.107a.363.363 0 0 0 0 .726h5.106a2.937 2.937 0 0 1-2.907 2.576h-2.2a.369.369 0 0 0-.363.374.375.375 0 0 0 .112.261l5.49 5.193a.362.362 0 0 0 .512-.015.37.37 0 0 0-.015-.519l-4.83-4.569h1.285a3.666 3.666 0 0 0 3.64-3.3h1.843a.363.363 0 0 0 0-.726z" data-name="Path 31" transform="translate(-56.365)" style="fill:#768a9e"/>
    </g>
</svg>
