<svg xmlns="http://www.w3.org/2000/svg" width="20.198" height="19.017" viewBox="0 0 20.198 19.017">
  <g id="noun_airport_truck_1818615" data-name="noun_airport truck_1818615" transform="translate(-5.025 -6.503)">
    <path id="Union_5" data-name="Union 5" d="M2484.7-13309.978h-6.556a1.619,1.619,0,0,1-1.6,1.4,1.621,1.621,0,0,1-1.609-1.425h-2.843a1.1,1.1,0,0,1-1.094-1.1v-2.646l1.452-2.636a1.134,1.134,0,0,1,.99-.582h1.244a.527.527,0,0,1,.528.525v.084h.445v-1.389a.774.774,0,0,1,.776-.775h10.76a.776.776,0,0,1,.776.775v5.409a.778.778,0,0,1-.776.779h-.01a1.617,1.617,0,0,1,.742,1.357,1.62,1.62,0,0,1-1.619,1.619A1.623,1.623,0,0,1,2484.7-13309.978Zm.428-.221a1.176,1.176,0,0,0,1.177,1.174,1.175,1.175,0,0,0,1.174-1.174,1.178,1.178,0,0,0-1.174-1.177A1.179,1.179,0,0,0,2485.132-13310.2Zm-9.763,0a1.176,1.176,0,0,0,1.177,1.174,1.176,1.176,0,0,0,1.177-1.174,1.179,1.179,0,0,0-1.177-1.177A1.179,1.179,0,0,0,2475.369-13310.2Zm2.779-.221h6.556a1.616,1.616,0,0,1,.726-1.137h-8A1.622,1.622,0,0,1,2478.148-13310.419Zm-6.706-.683a.653.653,0,0,0,.652.652h2.676v-2.812h-3.328Zm3.773-.017a1.613,1.613,0,0,1,.759-.595.769.769,0,0,1-.314-.622v-3.576h-.445Zm.886-6.626v5.409a.335.335,0,0,0,.334.334h10.76a.332.332,0,0,0,.331-.334v-5.409a.332.332,0,0,0-.331-.331h-10.76A.335.335,0,0,0,2476.1-13317.744Zm-3.261,1.576-1.358,2.461h3.288v-2.732a.085.085,0,0,0-.083-.083h-1.244A.689.689,0,0,0,2472.84-13316.168Zm10.61-3.884a16.317,16.317,0,0,1-1.983-.251c-1.422-.264-1.923-.531-1.923-1.023s.5-.756,1.923-1.02a15.616,15.616,0,0,1,1.983-.251h0l6.275,0a1.254,1.254,0,0,1,.9.371,1.264,1.264,0,0,1,.375.9,1.275,1.275,0,0,1-1.271,1.271Zm-3.462-1.274c0,.455,3.007.83,3.462.83h6.278a.829.829,0,0,0,.826-.826.831.831,0,0,0-.826-.83h-6.278C2482.995-13322.152,2479.988-13321.781,2479.988-13321.326Zm-1.191.358-1.418-.171a.565.565,0,0,1-.5-.562v-.539a.956.956,0,0,1,.957-.953.93.93,0,0,1,.475.131l.515.3a.957.957,0,0,1,.472.823v.532a.447.447,0,0,1-.445.444A.329.329,0,0,1,2478.8-13320.968Zm-1.475-1.271v.539a.12.12,0,0,0,.111.12l1.418.171v-.532a.515.515,0,0,0-.251-.438l-.512-.3a.5.5,0,0,0-.254-.07A.51.51,0,0,0,2477.322-13322.239Zm6.335-.819a.478.478,0,0,1-.421-.251l-1.783-3.392a.473.473,0,0,1,.418-.7h1.719a.474.474,0,0,1,.418.254l2.492,3.392a.474.474,0,0,1-.421.692Zm-1.813-3.88a.032.032,0,0,0,0,.03l1.786,3.392c0,.01.013.014.027.014l2.422,0a.027.027,0,0,0,.027-.017.022.022,0,0,0,0-.014l-2.455-3.348-.02-.03-.017-.027a.027.027,0,0,0-.027-.017h-1.719A.029.029,0,0,0,2481.844-13326.938Z" transform="translate(-2465.875 13334)" fill="#768a9e" stroke="#768a9e" stroke-width="0.2"/>
  </g>
</svg>
