<svg xmlns="http://www.w3.org/2000/svg" width="23.439" height="24.228" viewBox="0 0 23.439 24.228">
  <g id="edit-tools" transform="translate(-8.329)">
    <g id="Group_2817" data-name="Group 2817" transform="translate(8.329)">
      <path id="Path_6169" data-name="Path 6169" d="M31.587,15.521l-2.55-2.134a8.432,8.432,0,0,0,0-2.545l2.55-2.134a.5.5,0,0,0,.113-.639L29.379,4.046a.505.505,0,0,0-.61-.222L25.65,4.964a9.05,9.05,0,0,0-2.209-1.27L22.868.417A.5.5,0,0,0,22.37,0H17.727a.5.5,0,0,0-.5.417l-.574,3.276a9.05,9.05,0,0,0-2.209,1.27l-3.119-1.14a.5.5,0,0,0-.61.222L8.4,8.067a.5.5,0,0,0,.113.639l2.55,2.134a8.432,8.432,0,0,0,0,2.545L8.51,15.521a.5.5,0,0,0-.113.639l2.322,4.021a.506.506,0,0,0,.61.222l3.119-1.14a9.05,9.05,0,0,0,2.209,1.27l.574,3.276a.5.5,0,0,0,.5.417H22.37a.5.5,0,0,0,.5-.417l.574-3.276a9.05,9.05,0,0,0,2.209-1.27l3.119,1.14a.507.507,0,0,0,.61-.222L31.7,16.16A.5.5,0,0,0,31.587,15.521Zm-11.539,1.64A5.047,5.047,0,1,1,25.1,12.114,5.053,5.053,0,0,1,20.049,17.161Z" transform="translate(-8.329)" fill="#fff"/>
    </g>
  </g>
</svg>
