<svg xmlns="http://www.w3.org/2000/svg" id="prefix__storage" width="26.741" height="24.512" viewBox="0 0 26.741 24.512">
    <defs>
        <style>
            .prefix__cls-1{fill:#768a9e}
        </style>
    </defs>
    <path id="prefix__Path_6942" d="M20.055 18.827H17.27a.557.557 0 1 1 0-1.114h2.785a5.565 5.565 0 0 0 .338-11.121.557.557 0 0 1-.475-.321A7.233 7.233 0 0 0 6.212 8.32a.558.558 0 0 1-.552.48 4.457 4.457 0 1 0-.089 8.914h3.9a.557.557 0 1 1 0 1.114h-3.9A5.571 5.571 0 0 1 5.188 7.7a8.348 8.348 0 0 1 15.6-2.193 6.68 6.68 0 0 1-.728 13.321z" class="prefix__cls-1" data-name="Path 6942" transform="translate(0 -1)"/>
    <path id="prefix__Path_6943" d="M12.057 21a.557.557 0 0 1-.557-.557v-8.636a.557.557 0 0 1 1.114 0v8.635a.557.557 0 0 1-.557.558z" class="prefix__cls-1" data-name="Path 6943" transform="translate(1.313 .17)"/>
    <path id="prefix__Path_6944" d="M15.128 14.9a.56.56 0 0 1-.394-.163l-2.391-2.392-2.392 2.391a.557.557 0 0 1-.788-.788l2.785-2.785a.557.557 0 0 1 .788 0l2.785 2.785a.558.558 0 0 1-.394.952z" class="prefix__cls-1" data-name="Path 6944" transform="translate(1.028 .142)"/>
    <path id="prefix__Path_6945" d="M16.471 23.457h-7.8A1.673 1.673 0 0 1 7 21.785v-2.228a.557.557 0 0 1 1.114 0v2.228a.558.558 0 0 0 .557.557h7.8a.558.558 0 0 0 .557-.557v-2.228a.557.557 0 0 1 1.114 0v2.228a1.673 1.673 0 0 1-1.671 1.672z" class="prefix__cls-1" data-name="Path 6945" transform="translate(.799 1.056)"/>
</svg>
