<svg xmlns="http://www.w3.org/2000/svg" width="32.767" height="27.786" viewBox="0 0 32.767 27.786">
  <g id="Group_5671" data-name="Group 5671" transform="translate(19445.756 10717.944)">
    <path id="Path_7166" data-name="Path 7166" d="M55.767-11.439c-.019.3-.039.6-.056.9A3.6,3.6,0,0,1,54.6-8.2a3.768,3.768,0,0,1-4.738.46,4.127,4.127,0,0,0-.4-.231c-.3.4-.576.78-.875,1.144a9,9,0,0,1-5.315,3.134,11.36,11.36,0,0,1-1.558.169c-.522.033-1.047.022-1.57.039a.293.293,0,0,0-.2.085,1.473,1.473,0,0,1-1.554.526c-.344-.065-.7-.092-1.034-.18a1.157,1.157,0,0,1-.816-1.278,1.2,1.2,0,0,1,1.105-1.054,4.947,4.947,0,0,1,1.773.277,1.073,1.073,0,0,1,.445.359.672.672,0,0,0,.491.268,7.371,7.371,0,0,0,1.931-.07,10.008,10.008,0,0,0,2.656-.693A7.439,7.439,0,0,0,48.666-8.79a.291.291,0,0,0-.007-.227,4,4,0,0,1-.468-1.641c-.009-.273-.026-.546-.024-.818.009-1.053.029-2.106.037-3.159a3.354,3.354,0,0,1,.6-2,.961.961,0,0,0,.177-.639c-.04-.851-.016-1.708-.106-2.553a9.242,9.242,0,0,0-2.834-5.789,9.435,9.435,0,0,0-5.681-2.671,9.652,9.652,0,0,0-9.712,5.4A9.109,9.109,0,0,0,29.727-19c-.014.641-.009,1.282-.005,1.922a.416.416,0,0,0,.083.225,3.934,3.934,0,0,1,.732,1.755,4.473,4.473,0,0,1,.049.683c0,1.192-.03,2.385-.018,3.577a3.643,3.643,0,0,1-1.515,2.981,3.744,3.744,0,0,1-4.957-.4,3.749,3.749,0,0,1-1.069-2.468A1.776,1.776,0,0,0,23-10.9v-3.377c.011-.121.03-.242.032-.363a3.526,3.526,0,0,1,.845-2.268A3.6,3.6,0,0,1,26-18.234a10.2,10.2,0,0,1,1.3-.082c.07,0,.139,0,.221,0,0-.126,0-.225,0-.325a11.328,11.328,0,0,1,.306-2.932,11.807,11.807,0,0,1,13.807-8.818,11.506,11.506,0,0,1,7.035,4.341A11.636,11.636,0,0,1,51.155-19.1c.009.259.026.519.04.8.3,0,.594.009.882,0a3.107,3.107,0,0,1,1.857.556,3.611,3.611,0,0,1,1.777,2.9q.027.466.056.932Z" transform="translate(-19468.756 -10687.325)" fill="#fff"/>
  </g>
</svg>
