<svg xmlns="http://www.w3.org/2000/svg" width="27.802" height="22.032" viewBox="0 0 27.802 22.032">
  <g id="Group_1907" data-name="Group 1907" transform="translate(-14.508 -366.199)">
    <g id="_002-toll-road" data-name="002-toll-road" transform="translate(14.508 366.199)">
      <path id="Path_4754" data-name="Path 4754" d="M258.769,56.922a1.406,1.406,0,0,0-1.47-.33,1.385,1.385,0,0,0-.528.33l-2.3,2.3-2.827,2.827-2.827,2.827-3.911,3.911c.184-.09,2.026,1.97,2.026,1.97l1.885-1.885,2.827-2.827,2.827-2.827L257.3,60.39l1.47-1.47a1.411,1.411,0,0,0,0-2Z" transform="translate(-231.382 -56.509)" fill="#acb6c0"/>
      <g id="Group_1903" data-name="Group 1903" transform="translate(17.435 0.083)">
        <path id="Path_4755" data-name="Path 4755" d="M318.56,156.824v4l-2.827,2.827v-4Z" transform="translate(-315.733 -151.367)" fill="#fff"/>
        <path id="Path_4756" data-name="Path 4756" d="M420.96,58.008v3.8l-2.827,2.827v-4l2.3-2.3A1.387,1.387,0,0,1,420.96,58.008Z" transform="translate(-412.478 -58.008)" fill="#fff"/>
      </g>
      <path id="Path_4757" data-name="Path 4757" d="M36.909,88.558H25.6v19.791H37.852v-8.011h-.942Z" transform="translate(-24.186 -86.788)" fill="#eaeff3"/>
      <path id="Path_4758" data-name="Path 4758" d="M8.533,62.958H21.727v1.414a.942.942,0,0,1-.942.942H9.475a.942.942,0,0,1-.942-.942Z" transform="translate(-8.062 -62.602)" fill="#eaeff3"/>
      <path id="Path_4759" data-name="Path 4759" d="M60.205,139.758h6.6a.471.471,0,0,1,.471.471V147.3a.471.471,0,0,1-.471.471h-6.6a.471.471,0,0,1-.471-.471v-7.068A.471.471,0,0,1,60.205,139.758Z" transform="translate(-56.435 -135.161)" fill="#fff"/>
      <g id="Group_1904" data-name="Group 1904" transform="translate(3.77 10.252)">
        <path id="Path_4760" data-name="Path 4760" d="M103.343,242.158h.942a.942.942,0,0,1,.942.942v1.414H102.4V243.1A.942.942,0,0,1,103.343,242.158Z" transform="translate(-100.516 -242.158)" fill="#f7931e"/>
        <path id="Path_4761" data-name="Path 4761" d="M68.738,318.958h5.655a.471.471,0,0,1,.471.471v4.241a.471.471,0,0,1-.471.471H68.738a.471.471,0,0,1-.471-.471v-4.241A.471.471,0,0,1,68.738,318.958Z" transform="translate(-68.267 -314.717)" fill="#f7931e"/>
      </g>
      <g id="Group_1905" data-name="Group 1905" transform="translate(5.183 15.907)">
        <path id="Path_4762" data-name="Path 4762" d="M97.166,345.5H94.338a.471.471,0,1,1,0-.942h2.827a.471.471,0,1,1,0,.942Z" transform="translate(-93.867 -344.558)" fill="#fff"/>
        <path id="Path_4763" data-name="Path 4763" d="M97.166,371.1H94.338a.471.471,0,1,1,0-.942h2.827a.471.471,0,1,1,0,.942Z" transform="translate(-93.867 -368.744)" fill="#fff"/>
      </g>
      <path id="Path_4764" data-name="Path 4764" d="M233.227,277.7v8.011H230.4V277.7a1.414,1.414,0,1,1,2.827,0Z" transform="translate(-217.677 -264.154)" fill="#fff"/>
      <path id="Path_4765" data-name="Path 4765" d="M247.937,302.846a.47.47,0,0,1-.179-.038.548.548,0,0,1-.155-.1.488.488,0,0,1-.1-.156.471.471,0,0,1-.038-.179.616.616,0,0,1,.009-.094.3.3,0,0,1,.028-.085.361.361,0,0,1,.043-.085l.057-.071a.484.484,0,0,1,.155-.1.471.471,0,0,1,.514.1l.056.071a.365.365,0,0,1,.043.085.309.309,0,0,1,.028.085.658.658,0,0,1,.009.094.471.471,0,0,1-.038.179.491.491,0,0,1-.1.156l-.071.056a.359.359,0,0,1-.085.043.309.309,0,0,1-.085.028A.684.684,0,0,1,247.937,302.846Z" transform="translate(-233.801 -288.353)" fill="#f7931e"/>
      <path id="Path_4766" data-name="Path 4766" d="M27.006,439.367H.458a.471.471,0,0,1,0-.942H27.006a.471.471,0,0,1,0,.942Z" transform="translate(0 -417.335)" fill="#fff"/>
    </g>
  </g>
</svg>
