<svg id="Group_737" data-name="Group 737" xmlns="http://www.w3.org/2000/svg" width="24.08" height="23.849" viewBox="0 0 24.08 23.849">
  <path id="Subtraction_3" data-name="Subtraction 3" d="M4.657,11.233h0L1.364,7.943A4.652,4.652,0,0,1,4.658,0,4.651,4.651,0,0,1,7.951,7.943l-3.292,3.29ZM4.612,2.626A1.845,1.845,0,1,0,6.458,4.471,1.847,1.847,0,0,0,4.612,2.626Z" transform="translate(14.765)" fill="#fff"/>
  <path id="Path_1048" data-name="Path 1048" d="M142.813,231.415h-5.776a2.282,2.282,0,0,1,0-4.565H140.5l-1.4-1.4h-2.065a3.68,3.68,0,1,0,0,7.359h5.776a2.285,2.285,0,0,1,2.282,2.282v.047a2.285,2.285,0,0,1-2.282,2.282H130.036l-1.4,1.4h14.177a3.684,3.684,0,0,0,3.68-3.68v-.047A3.684,3.684,0,0,0,142.813,231.415Zm0,0" transform="translate(-122.48 -214.972)" fill="#cbc1c4"/>
  <path id="Subtraction_4" data-name="Subtraction 4" d="M4.657,11.233h0L1.364,7.943A4.652,4.652,0,0,1,4.658,0,4.651,4.651,0,0,1,7.951,7.943l-3.292,3.29ZM4.612,2.626A1.845,1.845,0,1,0,6.458,4.471,1.847,1.847,0,0,0,4.612,2.626Z" transform="translate(0 11.997)" fill="#fff"/>
</svg>
