<svg xmlns="http://www.w3.org/2000/svg" xmlns:xlink="http://www.w3.org/1999/xlink" width="123" height="123" viewBox="0 0 123 123">
  <defs>
    <linearGradient id="linear-gradient" x1="0.5" x2="0.5" y2="1" gradientUnits="objectBoundingBox">
      <stop offset="0" stop-color="#f7931e"/>
      <stop offset="1" stop-color="#f73f1e"/>
    </linearGradient>
  </defs>
  <g id="Group_3924" data-name="Group 3924" transform="translate(-567 -122)">
    <g id="Ellipse_8" data-name="Ellipse 8" transform="translate(567 122)" stroke="#ebeff3" stroke-width="1" opacity="0.1" fill="url(#linear-gradient)">
      <circle cx="61.5" cy="61.5" r="61.5" stroke="none"/>
      <circle cx="61.5" cy="61.5" r="61" fill="none"/>
    </g>
    <g id="Group_830" data-name="Group 830" transform="translate(601.77 156.724)">
      <path id="Subtraction_3" data-name="Subtraction 3" d="M10.324,24.9l0,0-7.3-7.292A10.311,10.311,0,0,1,10.325,0a10.31,10.31,0,0,1,7.3,17.605l-7.3,7.292Zm-.1-19.077a4.09,4.09,0,1,0,4.092,4.09A4.094,4.094,0,0,0,10.224,5.821Z" transform="translate(32.728 0)" fill="#ffb100"/>
      <path id="Path_1048" data-name="Path 1048" d="M160.06,238.668h-12.8a5.059,5.059,0,1,1,0-10.118h7.678l-3.1-3.1h-4.577a8.156,8.156,0,1,0,0,16.313h12.8a5.065,5.065,0,0,1,5.059,5.059v.1a5.065,5.065,0,0,1-5.059,5.059H131.737l-3.1,3.1H160.06a8.166,8.166,0,0,0,8.156-8.156v-.1A8.165,8.165,0,0,0,160.06,238.668Zm0,0" transform="translate(-114.989 -202.22)" fill="#133751"/>
      <path id="Subtraction_4" data-name="Subtraction 4" d="M10.324,24.9l0,0-7.3-7.292A10.311,10.311,0,0,1,10.325,0a10.31,10.31,0,0,1,7.3,17.605l-7.3,7.292Zm-.1-19.077a4.09,4.09,0,1,0,4.092,4.09A4.094,4.094,0,0,0,10.224,5.821Z" transform="translate(0 26.593)" fill="#ffb100"/>
    </g>
  </g>
</svg>
