<svg xmlns="http://www.w3.org/2000/svg" xmlns:xlink="http://www.w3.org/1999/xlink" width="16" height="16" viewBox="0 0 16 16">
  <defs>
    <clipPath id="clip-path">
      <rect id="Rectangle_775" data-name="Rectangle 775" width="16" height="16" transform="translate(1335 182)" fill="rgba(255,255,255,0)"/>
    </clipPath>
  </defs>
  <g id="Mask_Group_3" data-name="Mask Group 3" transform="translate(-1335 -182)" clip-path="url(#clip-path)">
    <g id="trash" transform="translate(1336.466 182)">
      <path id="Path_1612" data-name="Path 1612" d="M13.027,3.576l-.353-1.059a.985.985,0,0,0-.936-.674H8.769V.876A.877.877,0,0,0,7.893,0H5.174A.877.877,0,0,0,4.3.876v.967H1.33a.985.985,0,0,0-.936.674L.041,3.576A.793.793,0,0,0,.792,4.62h.369l.813,10.05A1.454,1.454,0,0,0,3.415,16h6.4a1.454,1.454,0,0,0,1.441-1.33l.813-10.05h.2a.793.793,0,0,0,.752-1.044ZM5.236.938h2.6v.906h-2.6Zm5.088,13.657a.511.511,0,0,1-.506.468h-6.4a.511.511,0,0,1-.506-.468L2.1,4.62H11.13ZM.994,3.682l.29-.868a.049.049,0,0,1,.046-.033H11.738a.049.049,0,0,1,.046.033l.29.868Zm0,0" fill="#ed1b00"/>
      <path id="Path_1613" data-name="Path 1613" d="M8.829,14.561h.025a.469.469,0,0,0,.468-.444l.44-8.45a.469.469,0,0,0-.936-.049l-.44,8.45A.469.469,0,0,0,8.829,14.561Zm0,0" fill="#ed1b00"/>
      <path id="Path_1614" data-name="Path 1614" d="M3.768,14.119a.469.469,0,0,0,.468.443h.026a.469.469,0,0,0,.443-.494l-.461-8.45a.469.469,0,0,0-.936.051Zm0,0" fill="#ed1b00"/>
      <path id="Path_1615" data-name="Path 1615" d="M6.539,14.562a.469.469,0,0,0,.469-.469V5.643a.469.469,0,0,0-.937,0v8.45A.469.469,0,0,0,6.539,14.562Zm0,0" fill="#ed1b00"/>
    </g>
  </g>
</svg>
