<svg xmlns="http://www.w3.org/2000/svg" width="24" height="24" viewBox="0 0 24 24">
  <g id="_002-teamwork" data-name="002-teamwork" transform="translate(0)">
    <g id="Group_793" data-name="Group 793" transform="translate(0.469 0.469)">
      <path id="Path_1114" data-name="Path 1114" d="M26.825,13.149a9.854,9.854,0,0,0-3.112-1.289v-.951A.912.912,0,0,0,22.8,10H20.258a.912.912,0,0,0-.91.909v.951a9.846,9.846,0,0,0-3.111,1.289l-.674-.672a.913.913,0,0,0-1.286,0l-1.8,1.8a.913.913,0,0,0,0,1.286l.674.674a9.831,9.831,0,0,0-1.29,3.111h-.951a.912.912,0,0,0-.909.91V22.8a.912.912,0,0,0,.909.909h.951a9.826,9.826,0,0,0,1.29,3.112l-.674.672a.913.913,0,0,0,0,1.286l1.8,1.8a.91.91,0,0,0,1.286,0l.674-.672a9.863,9.863,0,0,0,3.111,1.29v.95a.912.912,0,0,0,.91.91H22.8a.912.912,0,0,0,.909-.91V31.2a9.857,9.857,0,0,0,3.112-1.29l.672.672a.91.91,0,0,0,1.286,0l1.8-1.8a.91.91,0,0,0,0-1.286l-.672-.672a9.857,9.857,0,0,0,1.29-3.112h.95a.913.913,0,0,0,.91-.9V20.252a.913.913,0,0,0-.91-.9H31.2a9.863,9.863,0,0,0-1.29-3.111l.672-.674a.91.91,0,0,0,0-1.286l-1.8-1.8a.913.913,0,0,0-1.286,0Zm-5.295.535a7.847,7.847,0,1,1-7.846,7.846,7.847,7.847,0,0,1,7.846-7.846Z" transform="translate(-10 -10)" fill="#cac2c4" fill-rule="evenodd"/>
    </g>
    <g id="Group_795" data-name="Group 795" transform="translate(7.948 7.649)">
      <path id="Path_1116" data-name="Path 1116" d="M171.585,166.872a2.026,2.026,0,0,1,1.993-2.025,2.025,2.025,0,1,0-1.993,2.386h.032A2.021,2.021,0,0,1,171.585,166.872Z" transform="translate(-169.559 -163.182)" fill="#fff" fill-rule="evenodd"/>
    </g>
    <g id="Group_796" data-name="Group 796" transform="translate(9.974 9.314)">
      <path id="Path_1117" data-name="Path 1117" d="M216.838,200.724a2.027,2.027,0,0,0-1.994-2.025h-.064a2.025,2.025,0,1,0,2.026,2.386A2.16,2.16,0,0,0,216.838,200.724Z" transform="translate(-212.787 -198.699)" fill="#fff" fill-rule="evenodd"/>
    </g>
    <g id="Group_797" data-name="Group 797" transform="translate(12.031 7.649)">
      <path id="Path_1118" data-name="Path 1118" d="M260.686,165.207a2.026,2.026,0,0,0-4.019-.361,2.027,2.027,0,0,1,1.994,2.025,2.151,2.151,0,0,1-.032.361h.032a2.027,2.027,0,0,0,2.025-2.025Z" transform="translate(-256.667 -163.181)" fill="#fff" fill-rule="evenodd"/>
    </g>
    <g id="Group_798" data-name="Group 798" transform="translate(13.27 11.253)">
      <path id="Path_1119" data-name="Path 1119" d="M286.936,242.877a3.1,3.1,0,0,0-1.826-2.821,2.01,2.01,0,0,1-1.269.448h-.032a2.032,2.032,0,0,1-.724,1.217,3.121,3.121,0,0,1,1.64,1.767h2.211v-.611Z" transform="translate(-283.085 -240.056)" fill="#fff" fill-rule="evenodd"/>
    </g>
    <g id="Group_799" data-name="Group 799" transform="translate(8.905 12.917)">
      <path id="Path_1120" data-name="Path 1120" d="M195.972,277.34a3.121,3.121,0,0,0-1.64-1.767,2.024,2.024,0,0,1-2.539,0,3.123,3.123,0,0,0-1.641,1.767,3.083,3.083,0,0,0-.185,1.054v.611h6.19v-.611A3.05,3.05,0,0,0,195.972,277.34Z" transform="translate(-189.968 -275.573)" fill="#fff" fill-rule="evenodd"/>
    </g>
    <g id="Group_800" data-name="Group 800" transform="translate(6.878 11.253)">
      <path id="Path_1121" data-name="Path 1121" d="M148.951,243.487a3.123,3.123,0,0,1,1.641-1.767,2.025,2.025,0,0,1-.724-1.217h-.032a2.014,2.014,0,0,1-1.27-.448,3.107,3.107,0,0,0-1.826,2.821v.611h2.211Z" transform="translate(-146.74 -240.055)" fill="#fff" fill-rule="evenodd"/>
    </g>
    <g id="Group_801" data-name="Group 801" transform="translate(0 0)">
      <path id="Path_1122" data-name="Path 1122" d="M22.621,9.348h-.582a10.3,10.3,0,0,0-1.066-2.571l.412-.412a1.379,1.379,0,0,0,0-1.95l-1.8-1.8a1.382,1.382,0,0,0-1.949,0l-.412.412a10.292,10.292,0,0,0-2.572-1.066V1.378A1.379,1.379,0,0,0,13.274,0H10.726A1.38,1.38,0,0,0,9.347,1.378v.583A10.279,10.279,0,0,0,6.777,3.026l-.413-.412a1.381,1.381,0,0,0-1.949,0l-1.8,1.8a1.381,1.381,0,0,0,0,1.948l.413.413A10.268,10.268,0,0,0,1.961,9.348H1.378A1.38,1.38,0,0,0,0,10.726v2.547a1.379,1.379,0,0,0,1.378,1.378h.583a10.266,10.266,0,0,0,1.066,2.572l-.413.412a1.381,1.381,0,0,0,0,1.949l1.8,1.8a1.37,1.37,0,0,0,.975.4h0a1.366,1.366,0,0,0,.972-.4l.413-.412a10.3,10.3,0,0,0,2.571,1.066v.582A1.38,1.38,0,0,0,10.726,24h2.547a1.38,1.38,0,0,0,1.378-1.379v-.582a10.3,10.3,0,0,0,2.572-1.066l.411.411a1.379,1.379,0,0,0,1.95,0l1.8-1.8a1.379,1.379,0,0,0,0-1.95l-.412-.412a10.3,10.3,0,0,0,1.066-2.572h.582A1.38,1.38,0,0,0,24,13.273V10.726a1.38,1.38,0,0,0-1.379-1.379Zm.441,3.926a.441.441,0,0,1-.441.44h-.95a.469.469,0,0,0-.457.366,9.372,9.372,0,0,1-1.229,2.964.469.469,0,0,0,.065.582l.673.673a.442.442,0,0,1,0,.623l-1.8,1.8a.442.442,0,0,1-.623,0l-.672-.672a.469.469,0,0,0-.582-.065,9.374,9.374,0,0,1-2.964,1.229.469.469,0,0,0-.366.457v.95a.441.441,0,0,1-.44.441H10.726a.442.442,0,0,1-.441-.441v-.95a.469.469,0,0,0-.366-.457,9.376,9.376,0,0,1-2.963-1.229.469.469,0,0,0-.582.064l-.675.673a.435.435,0,0,1-.31.128h0a.438.438,0,0,1-.312-.129l-1.8-1.8a.447.447,0,0,1,0-.623l.674-.672a.469.469,0,0,0,.065-.583A9.34,9.34,0,0,1,2.786,14.08a.469.469,0,0,0-.457-.366H1.378a.441.441,0,0,1-.44-.44V10.726a.441.441,0,0,1,.44-.441h.951a.469.469,0,0,0,.457-.366A9.343,9.343,0,0,1,4.015,6.956a.469.469,0,0,0-.065-.582L3.277,5.7a.442.442,0,0,1,0-.623l1.8-1.8a.442.442,0,0,1,.624,0l.674.672a.469.469,0,0,0,.582.064A9.353,9.353,0,0,1,9.919,2.786a.469.469,0,0,0,.366-.457V1.378a.441.441,0,0,1,.441-.44h2.547a.441.441,0,0,1,.44.44v.951a.469.469,0,0,0,.366.457,9.368,9.368,0,0,1,2.964,1.228.469.469,0,0,0,.582-.065l.672-.672a.447.447,0,0,1,.623,0l1.8,1.8a.442.442,0,0,1,0,.624l-.672.674a.469.469,0,0,0-.064.582,9.377,9.377,0,0,1,1.229,2.963.469.469,0,0,0,.457.366h.95a.442.442,0,0,1,.441.441v2.547Z" transform="translate(0 0)" fill="#133751"/>
      <path id="Path_1125" data-name="Path 1125" d="M144.355,153.181a2.493,2.493,0,0,0-2.026,1.037,2.494,2.494,0,1,0-4.043,2.923,3.575,3.575,0,0,0-1.547,2.934v.611a.469.469,0,0,0,.469.469h1.607a3.525,3.525,0,0,0-.049.585v.611a.469.469,0,0,0,.469.469h6.19a.469.469,0,0,0,.469-.469v-.611a3.529,3.529,0,0,0-.049-.585h1.606a.469.469,0,0,0,.469-.469v-.611a3.574,3.574,0,0,0-1.547-2.934,2.493,2.493,0,0,0-2.017-3.959Zm0,.938a1.557,1.557,0,0,1,.462,3.044,2.5,2.5,0,0,0-1.833-2.228A1.557,1.557,0,0,1,144.355,154.118Zm-3.582,3.221a1.557,1.557,0,1,1,1.556,1.558A1.558,1.558,0,0,1,140.773,157.34Zm-.469-3.221a1.555,1.555,0,0,1,1.37.815,2.5,2.5,0,0,0-1.831,2.229,1.557,1.557,0,0,1,.462-3.044Zm-2.627,6.1v-.142A2.637,2.637,0,0,1,139,157.8a2.479,2.479,0,0,0,.973.348,2.49,2.49,0,0,0,.342.658,3.59,3.59,0,0,0-1.2,1.412Zm7.279,1.665H139.7v-.142a2.636,2.636,0,0,1,1.32-2.275,2.487,2.487,0,0,0,2.613,0,2.637,2.637,0,0,1,1.32,2.275v.142Zm2.025-1.807v.142h-1.433a3.593,3.593,0,0,0-1.2-1.412,2.488,2.488,0,0,0,.343-.658,2.476,2.476,0,0,0,.972-.348A2.636,2.636,0,0,1,146.981,160.074Z" transform="translate(-130.329 -146.001)" fill="#133751"/>
    </g>
  </g>
</svg>
