<svg xmlns="http://www.w3.org/2000/svg" width="27.743" height="14.692" viewBox="0 0 27.743 14.692">
  <g id="truck_1_" data-name="truck (1)" transform="translate(0 -110.151)">
    <path id="Path_1097" data-name="Path 1097" d="M457.207,309.487v.745a.283.283,0,0,1-.283.283h-.415V309.2h.415A.283.283,0,0,1,457.207,309.487Z" transform="translate(-429.464 -187.26)" fill="#f7be56"/>
    <path id="Path_1098" data-name="Path 1098" d="M48.8,281.144v2.693H32.6v-.211h-.457V282.29H32.6v-1.146Z" transform="translate(-30.24 -160.863)" fill="#3a556a"/>
    <path id="Path_1099" data-name="Path 1099" d="M311.511,300.472v1.83a.393.393,0,0,1-.393.393h-9.032v-2.224h9.425Z" transform="translate(-284.189 -179.046)" fill="#64798a"/>
    <path id="Path_1100" data-name="Path 1100" d="M25.466,300.48v1.336h-.342a.186.186,0,0,1-.186-.186v-.964a.186.186,0,0,1,.186-.186Z" transform="translate(-23.461 -179.053)" fill="#e56353"/>
    <path id="Path_1113" data-name="Path 1113" d="M0,0H17.7V10.943H0Z" transform="translate(0 110.151)" fill="#fff"/>
    <path id="Path_1101" data-name="Path 1101" d="M311.511,163.9v1.989h-9.425v-8.561h4.238a1.065,1.065,0,0,1,.795.351,9.383,9.383,0,0,1,1.7,3.775l2.235,1.568A1.074,1.074,0,0,1,311.511,163.9Z" transform="translate(-284.189 -44.381)" fill="#fff"/>
    <path id="Path_1102" data-name="Path 1102" d="M338.926,177.972h-3.949v-3.527h.422A3.527,3.527,0,0,1,338.926,177.972Z" transform="translate(-315.132 -60.485)" fill="#27a2db"/>
    <g id="Group_790" data-name="Group 790" transform="translate(19.967 118.167)">
      <path id="Path_1103" data-name="Path 1103" d="M337.993,245.755a.956.956,0,0,1-.474.129,1.072,1.072,0,0,1-.488-.125l.084-.3a.822.822,0,0,0,.768,0Z" transform="translate(-337.031 -245.458)" fill="#2f4859"/>
      <path id="Path_1104" data-name="Path 1104" d="M365.024,283.419a2.281,2.281,0,1,0,2.281-2.281A2.28,2.28,0,0,0,365.024,283.419Z" transform="translate(-363.366 -279.024)" fill="#2f4859"/>
    </g>
    <path id="Path_1105" data-name="Path 1105" d="M384.361,301.611a1.135,1.135,0,1,0,2.27,0,1.135,1.135,0,0,0-2.27,0Z" transform="translate(-361.59 -179.056)" fill="#64798a"/>
    <path id="Path_1106" data-name="Path 1106" d="M384.361,302.4a.888.888,0,0,0,.032.256.356.356,0,0,1,.4.159.352.352,0,0,1-.065.423,1.15,1.15,0,0,0,.431.252.346.346,0,0,1,.676,0,1.107,1.107,0,0,0,.431-.256.351.351,0,0,1-.065-.423.356.356,0,0,1,.4-.159.886.886,0,0,0,.033-.256.955.955,0,0,0-.029-.244.346.346,0,0,1-.338-.586,1.2,1.2,0,0,0-.431-.248.346.346,0,0,1-.676,0,1.181,1.181,0,0,0-.435.248.354.354,0,0,1,.069.427.369.369,0,0,1-.4.155A.963.963,0,0,0,384.361,302.4Z" transform="translate(-361.59 -179.843)" fill="#ebf0f3"/>
    <path id="Path_1107" data-name="Path 1107" d="M49.545,283.419a2.281,2.281,0,1,0,2.281-2.281A2.28,2.28,0,0,0,49.545,283.419Z" transform="translate(-46.61 -160.857)" fill="#133751"/>
    <path id="Path_1108" data-name="Path 1108" d="M68.882,301.611a1.135,1.135,0,1,0,2.27,0,1.135,1.135,0,0,0-2.27,0Z" transform="translate(-64.801 -179.056)" fill="#64798a"/>
    <path id="Path_1109" data-name="Path 1109" d="M68.883,302.4a.89.89,0,0,0,.032.256.356.356,0,0,1,.4.159.352.352,0,0,1-.065.423,1.15,1.15,0,0,0,.431.252.346.346,0,0,1,.676,0,1.107,1.107,0,0,0,.431-.256.351.351,0,0,1-.065-.423.356.356,0,0,1,.4-.159.889.889,0,0,0,.032-.256.958.958,0,0,0-.028-.244.346.346,0,0,1-.338-.586,1.2,1.2,0,0,0-.431-.248.346.346,0,0,1-.676,0,1.181,1.181,0,0,0-.436.248.354.354,0,0,1,.069.427.369.369,0,0,1-.4.155A.963.963,0,0,0,68.883,302.4Z" transform="translate(-64.802 -179.843)" fill="#ebf0f3"/>
    <path id="Path_1110" data-name="Path 1110" d="M164.28,303.655v.684a.835.835,0,0,1-.834.834h-4.6a.834.834,0,0,1-.833-.834v-.684a.834.834,0,0,1,.833-.834h4.6A.835.835,0,0,1,164.28,303.655Z" transform="translate(-148.649 -181.255)" fill="#64798a"/>
    <rect id="Rectangle_36" data-name="Rectangle 36" width="3.195" height="2.353" transform="translate(10.898 121.565)" fill="#d5d6db"/>
    <g id="Group_791" data-name="Group 791" transform="translate(18.283 121.707)">
      <rect id="Rectangle_37" data-name="Rectangle 37" width="2.442" height="0.37" transform="translate(0 0)" fill="#f7be56"/>
      <rect id="Rectangle_38" data-name="Rectangle 38" width="2.442" height="0.37" transform="translate(0 0.429)" fill="#f7be56"/>
      <rect id="Rectangle_39" data-name="Rectangle 39" width="2.442" height="0.37" transform="translate(0 0.862)" fill="#f7be56"/>
      <rect id="Rectangle_40" data-name="Rectangle 40" width="2.442" height="0.37" transform="translate(0 1.294)" fill="#f7be56"/>
    </g>
    <g id="Group_792" data-name="Group 792" transform="translate(0.744 111.265)">
      <path id="Path_1111" data-name="Path 1111" d="M12.563,129.678v-.717H28.77Z" transform="translate(-12.563 -128.961)" fill="#fcd462"/>
      <path id="Path_1112" data-name="Path 1112" d="M28.77,263.986v.717H12.563Z" transform="translate(-12.563 -255.987)" fill="#fcd462"/>
    </g>
  </g>
</svg>
