<svg xmlns="http://www.w3.org/2000/svg" width="24.336" height="21.782" viewBox="0 0 24.336 21.782">
  <g id="user" transform="translate(0 -0.109)">
    <path id="Path_1601" data-name="Path 1601" d="M73.348,5.024A4.914,4.914,0,1,1,68.434.109,4.914,4.914,0,0,1,73.348,5.024Zm0,0" transform="translate(-60)" fill="#fff"/>
    <path id="Path_1602" data-name="Path 1602" d="M13.851,237.264A8.291,8.291,0,0,0,8.443,235.3H8.427a8.3,8.3,0,0,0-5.967,2.5A8.893,8.893,0,0,0,0,243.724l14.449-.028A5.354,5.354,0,0,1,13.851,237.264Zm0,0" transform="translate(0 -222.158)" fill="#fff"/>
    <g id="cogwheel" transform="translate(13.296 11.852)">
      <g id="Group_1322" data-name="Group 1322" transform="translate(0 0)">
        <path id="Path_1604" data-name="Path 1604" d="M9.883,4.392c-.081-.051-.714-.43-.966-.545l-.312-.753c.093-.249.27-.947.3-1.068a.335.335,0,0,0-.09-.311l-.488-.488a.335.335,0,0,0-.311-.09c-.092.021-.808.2-1.068.3l-.753-.312C6.083.883,5.715.264,5.648.158A.335.335,0,0,0,5.365,0h-.69a.335.335,0,0,0-.283.157c-.051.081-.43.714-.545.966l-.753.312c-.249-.093-.947-.27-1.068-.3a.335.335,0,0,0-.311.09l-.488.488a.335.335,0,0,0-.09.311c.021.092.2.808.3,1.068l-.312.753c-.241.11-.859.478-.966.545A.335.335,0,0,0,0,4.676v.69a.335.335,0,0,0,.157.283c.081.051.714.43.966.545l.312.753c-.093.249-.27.947-.3,1.068a.335.335,0,0,0,.09.311l.488.488a.335.335,0,0,0,.311.09c.092-.021.808-.2,1.068-.3l.753.312c.11.241.478.859.545.966a.335.335,0,0,0,.283.157h.69a.335.335,0,0,0,.283-.157c.051-.081.43-.714.545-.966l.753-.312c.249.093.947.27,1.068.3a.334.334,0,0,0,.311-.09l.488-.488a.335.335,0,0,0,.09-.311c-.021-.092-.2-.808-.3-1.068l.312-.753c.241-.11.859-.478.966-.545a.335.335,0,0,0,.157-.283v-.69A.335.335,0,0,0,9.883,4.392ZM5.02,7.209A2.188,2.188,0,1,1,7.208,5.021,2.191,2.191,0,0,1,5.02,7.209Z" transform="translate(1 -0.001)" fill="#fff"/>
      </g>
    </g>
  </g>
</svg>
