<svg xmlns="http://www.w3.org/2000/svg" width="17.909" height="20" viewBox="0 0 17.909 20">
  <g id="noun_Driver_1877803" transform="translate(-4.3 -1)">
    <g id="Group_5714" data-name="Group 5714" transform="translate(4.3 1)">
      <g id="Group_5711" data-name="Group 5711" transform="translate(0)">
        <path id="Path_7167" data-name="Path 7167" d="M21.456,13.219a15.135,15.135,0,0,0-3.562-1.75V10.312a3.875,3.875,0,0,0,.938-1.594c.531-.656,1.031-1.594.313-2.062l.063-.781h.281a.316.316,0,0,0,.281-.437.883.883,0,0,0-.406-.406V3.281a1.219,1.219,0,0,0-.531-1.031A6.431,6.431,0,0,0,15.456,1a6.558,6.558,0,0,0-3.438,1.25,1.219,1.219,0,0,0-.531,1.031V5a.883.883,0,0,0-.406.406.3.3,0,0,0,.281.438h.281l.062.781a.646.646,0,0,0-.312.437c-.125.406.094.938.656,1.625a3.694,3.694,0,0,0,.938,1.594v1.156a15.752,15.752,0,0,0-3.563,1.75,4.268,4.268,0,0,0-.469.656,3.3,3.3,0,0,0-.969-.125A3.641,3.641,0,1,0,7.956,21a3.619,3.619,0,0,0,3.469-2.625H21.894a.3.3,0,0,0,.312-.312V15.125A2.562,2.562,0,0,0,21.456,13.219Zm-3.375-1-1.531,2-.687-.656L17.612,12Zm-2.656.937-1.844-1.625v-.719a3.483,3.483,0,0,0,1.844.5,3.222,3.222,0,0,0,1.844-.5v.719ZM12.113,3.281a.614.614,0,0,1,.281-.531,5.869,5.869,0,0,1,3-1.125,5.833,5.833,0,0,1,3.031,1.156.7.7,0,0,1,.281.531V4.719a7.413,7.413,0,0,0-6.594,0ZM18.456,5.25H12.331A6.817,6.817,0,0,1,18.456,5.25ZM12.519,8.375c-.281-.344-.844-1.094-.406-1.25a.109.109,0,0,1,.063-.031.272.272,0,0,0,.125-.281l-.063-.906h6.344c-.062.813-.187,1.125.125,1.219.437.156-.125.906-.406,1.25a.237.237,0,0,0-.062.125,2.873,2.873,0,0,1-2.812,2.187A3.053,3.053,0,0,1,12.519,8.375Zm.687,3.656,1.75,1.563-.687.656-1.531-2ZM8.488,17.375a.548.548,0,0,1-.531.531.527.527,0,0,1-.531-.531.548.548,0,0,1,.531-.531A.527.527,0,0,1,8.488,17.375ZM5.206,18.594a3.145,3.145,0,0,1-.25-1.219,3.016,3.016,0,0,1,2.688-3V16.25A1.145,1.145,0,0,0,6.8,17.375a.865.865,0,0,0,.031.281Zm2.75,1.781a3.047,3.047,0,0,1-2.437-1.25l1.625-.937a1.132,1.132,0,0,0,1.625,0l1.625.938A3.047,3.047,0,0,1,7.956,20.375Zm2.719-1.781L9.05,17.656a.865.865,0,0,0,.031-.281,1.211,1.211,0,0,0-.844-1.125V14.375a3.016,3.016,0,0,1,2.688,3A2.317,2.317,0,0,1,10.675,18.594ZM21.55,17.75h-10c0-.125.031-.25.031-.375a3.632,3.632,0,0,0-2.094-3.281,1.52,1.52,0,0,1,.344-.438,9.658,9.658,0,0,1,2.313-1.187l1.844,2.406a.313.313,0,0,0,.469.031L15.425,14l.969.906a.34.34,0,0,0,.469-.031l1.844-2.406a9.157,9.157,0,0,1,2.313,1.187,1.978,1.978,0,0,1,.594,1.469V17.75Z" transform="translate(-4.3 -1)" fill="#768a9e"/>
      </g>
      <g id="Group_5712" data-name="Group 5712" transform="translate(9.361 14.269)">
        <path id="Path_7168" data-name="Path 7168" d="M40.4,47.1h-1a1,1,0,0,0,0,2h1a.945.945,0,0,0,1-1A1,1,0,0,0,40.4,47.1Z" transform="translate(-38.4 -47.1)" fill="#768a9e"/>
      </g>
    </g>
  </g>
</svg>
