<svg xmlns="http://www.w3.org/2000/svg" width="20.2" height="14.334" viewBox="0 0 20.2 14.334">
  <g id="noun_Lorry_128750" transform="translate(-58.88 -63.352)">
    <g id="Group_5715" data-name="Group 5715">
      <path id="Union_4" data-name="Union 4" d="M2518.726-13316.124a1.71,1.71,0,0,1,1.709-1.71,1.71,1.71,0,0,1,1.71,1.71,1.71,1.71,0,0,1-1.71,1.71A1.71,1.71,0,0,1,2518.726-13316.124Zm.46,0a1.249,1.249,0,0,0,1.249,1.248,1.248,1.248,0,0,0,1.249-1.248,1.248,1.248,0,0,0-1.249-1.249A1.249,1.249,0,0,0,2519.187-13316.124Zm-4.207,0a1.71,1.71,0,0,1,1.709-1.71,1.71,1.71,0,0,1,1.709,1.71,1.71,1.71,0,0,1-1.709,1.71A1.71,1.71,0,0,1,2514.979-13316.124Zm.461,0a1.248,1.248,0,0,0,1.248,1.248,1.249,1.249,0,0,0,1.249-1.248,1.248,1.248,0,0,0-1.249-1.249A1.248,1.248,0,0,0,2515.44-13316.124Zm-10.141,0a1.71,1.71,0,0,1,1.71-1.71,1.71,1.71,0,0,1,1.71,1.71,1.71,1.71,0,0,1-1.71,1.71A1.71,1.71,0,0,1,2505.3-13316.124Zm.461,0a1.248,1.248,0,0,0,1.249,1.248,1.248,1.248,0,0,0,1.248-1.248,1.248,1.248,0,0,0-1.248-1.249A1.248,1.248,0,0,0,2505.761-13316.124Zm5.557,1.334a.415.415,0,0,1-.415-.415v-.322h-1.7a.23.23,0,0,1,0-.461h1.7v-.461a.416.416,0,0,1,.416-.415h2.769a.416.416,0,0,1,.415.416v1.243a.415.415,0,0,1-.415.415Zm.045-.461h2.678v-1.152h-2.678Zm8.387-.873a.686.686,0,0,1,.685-.687.686.686,0,0,1,.686.687.686.686,0,0,1-.686.685A.685.685,0,0,1,2519.75-13316.124Zm.462,0a.224.224,0,0,0,.224.225.225.225,0,0,0,.225-.225.225.225,0,0,0-.225-.225A.224.224,0,0,0,2520.212-13316.124Zm-4.208,0a.685.685,0,0,1,.685-.687.685.685,0,0,1,.685.687.685.685,0,0,1-.685.685A.685.685,0,0,1,2516-13316.124Zm.46,0a.224.224,0,0,0,.225.225.225.225,0,0,0,.224-.225.224.224,0,0,0-.224-.225A.225.225,0,0,0,2516.464-13316.124Zm-10.141,0a.686.686,0,0,1,.686-.687.686.686,0,0,1,.686.687.685.685,0,0,1-.686.685A.686.686,0,0,1,2506.323-13316.124Zm.462,0a.224.224,0,0,0,.224.225.225.225,0,0,0,.225-.225.225.225,0,0,0-.225-.225A.224.224,0,0,0,2506.785-13316.124Zm-3.432.6a.36.36,0,0,1-.242-.127.42.42,0,0,1-.112-.283v-1.5a.417.417,0,0,1,.412-.416h.59v-.826a.221.221,0,0,1,.229-.23v-1.947a.221.221,0,0,1-.229-.23v-.968a.237.237,0,0,1,.2-.228v-2.184a.237.237,0,0,1-.2-.227v-.786a.74.74,0,0,1,.332-.649l1.968-1.965a1.584,1.584,0,0,1,1.091-.467h4.855a.23.23,0,0,1,0,.461H2507.4a1.125,1.125,0,0,0-.776.331l-1.469,1.466h6.339c.462,0,.968.228.968.823v6.455c0,.6-.505.823-.968.823h-2.562a1.068,1.068,0,0,1,.142.351h5.707a2.563,2.563,0,0,1,1.909-.848,2.551,2.551,0,0,1,1.866.812,2.568,2.568,0,0,1,1.878-.812,2.557,2.557,0,0,1,2.07,1.054,2.574,2.574,0,0,1,.491,1.518.23.23,0,0,1-.461,0,2.109,2.109,0,0,0-.4-1.242,2.1,2.1,0,0,0-1.7-.868,2.1,2.1,0,0,0-1.677.825.177.177,0,0,1-.034.043.218.218,0,0,1-.168.076.213.213,0,0,1-.166-.075.2.2,0,0,1-.035-.044,2.1,2.1,0,0,0-1.667-.825,2.116,2.116,0,0,0-1.626.764.228.228,0,0,1-.188.083h-6a.221.221,0,0,1-.23-.23l0-.016a.549.549,0,0,0-.506-.564h-2.264a.552.552,0,0,0-.506.564.237.237,0,0,1-.252.244h-1.653v1.4h1.353a.23.23,0,0,1,0,.461S2503.365-13315.518,2503.353-13315.52Zm1.108-5.787a.221.221,0,0,1,.228.23v2.424a.221.221,0,0,1-.228.23v.58h.465a1,1,0,0,1,.93-.809h5.641c.352,0,.507-.146.507-.363v-6.454c0-.218-.155-.362-.507-.362h-6.528a.687.687,0,0,0-.355.078l-.023.016a.313.313,0,0,0-.129.269v.556l3.713,0a.416.416,0,0,1,.415.414v2.269a.417.417,0,0,1-.415.414l-3.713,0Zm.195-.968h3.472v-2.176l-3.472,0Zm4.115-4.64a.23.23,0,1,1,0-.461h3.457a.23.23,0,0,1,0,.461Z" transform="translate(-2444.018 13392)" fill="#768a9e" stroke="#768a9e" stroke-width="0.2"/>
    </g>
  </g>
</svg>
